<?xml version="1.0" encoding="UTF-8"?>
<svg xmlns="http://www.w3.org/2000/svg" xmlns:xlink="http://www.w3.org/1999/xlink" width="187.5pt" height="187.499995pt" viewBox="0 0 187.5 187.499995" version="1.2">
<defs>
<clipPath id="clip1">
  <path d="M 7.648438 0 L 180.085938 0 L 180.085938 187 L 7.648438 187 Z M 7.648438 0 "/>
</clipPath>
</defs>
<g id="surface1">
<path style=" stroke:none;fill-rule:nonzero;fill:rgb(100%,43.528748%,38.038635%);fill-opacity:1;" d="M 126.578125 86.4375 L 123.664062 86.4375 C 123.371094 86.4375 123.132812 86.675781 123.132812 86.96875 L 123.132812 121.410156 C 123.132812 121.703125 123.371094 121.945312 123.664062 121.945312 L 126.578125 121.945312 C 126.875 121.945312 127.113281 121.703125 127.113281 121.410156 L 127.113281 86.96875 C 127.113281 86.675781 126.875 86.4375 126.578125 86.4375 "/>
<path style=" stroke:none;fill-rule:nonzero;fill:rgb(100%,43.528748%,38.038635%);fill-opacity:1;" d="M 109.960938 102.515625 C 108.582031 103.757812 106.527344 104.390625 103.851562 104.390625 L 95.550781 104.390625 L 95.550781 89.960938 L 104.03125 89.960938 C 106.597656 89.992188 108.589844 90.671875 109.957031 91.980469 C 111.339844 93.304688 112.007812 95.042969 112.007812 97.292969 C 112.007812 99.558594 111.339844 101.265625 109.960938 102.515625 Z M 112.695312 89.3125 C 110.527344 87.402344 107.550781 86.4375 103.851562 86.4375 L 92.101562 86.4375 C 91.804688 86.4375 91.566406 86.675781 91.566406 86.96875 L 91.566406 121.410156 C 91.566406 121.703125 91.804688 121.945312 92.101562 121.945312 L 95.015625 121.945312 C 95.308594 121.945312 95.550781 121.703125 95.550781 121.410156 L 95.550781 107.917969 L 103.777344 107.917969 C 107.6875 107.917969 110.726562 106.984375 112.8125 105.144531 C 114.921875 103.289062 115.992188 100.636719 115.992188 97.257812 C 115.992188 93.914062 114.882812 91.238281 112.695312 89.3125 "/>
<path style=" stroke:none;fill-rule:nonzero;fill:rgb(100%,43.528748%,38.038635%);fill-opacity:1;" d="M 69.628906 92.0625 L 75.78125 108.742188 L 63.480469 108.742188 Z M 77.097656 112.269531 L 80.546875 121.59375 C 80.625 121.804688 80.824219 121.945312 81.046875 121.945312 L 84.078125 121.945312 C 84.253906 121.945312 84.417969 121.859375 84.519531 121.714844 C 84.621094 121.570312 84.640625 121.386719 84.578125 121.222656 L 71.527344 86.78125 C 71.449219 86.574219 71.25 86.4375 71.027344 86.4375 L 68.257812 86.4375 C 68.035156 86.4375 67.835938 86.574219 67.757812 86.78125 L 54.707031 121.222656 C 54.644531 121.386719 54.664062 121.570312 54.765625 121.714844 C 54.863281 121.859375 55.03125 121.945312 55.203125 121.945312 L 58.261719 121.945312 C 58.484375 121.945312 58.6875 121.804688 58.761719 121.59375 L 62.1875 112.269531 L 77.097656 112.269531 "/>
<path style=" stroke:none;fill-rule:nonzero;fill:rgb(18.818665%,16.079712%,38.819885%);fill-opacity:1;" d="M 117.410156 63.097656 L 114.535156 63.097656 C 113.203125 63.097656 112.128906 64.171875 112.128906 65.5 C 112.128906 66.828125 113.203125 67.90625 114.535156 67.90625 L 117.410156 67.90625 C 118.738281 67.90625 119.816406 66.828125 119.816406 65.5 C 119.816406 64.171875 118.738281 63.097656 117.410156 63.097656 "/>
<path style=" stroke:none;fill-rule:nonzero;fill:rgb(18.818665%,16.079712%,38.819885%);fill-opacity:1;" d="M 127.113281 63.097656 L 124.238281 63.097656 C 122.910156 63.097656 121.832031 64.171875 121.832031 65.5 C 121.832031 66.828125 122.910156 67.90625 124.238281 67.90625 L 127.113281 67.90625 C 128.441406 67.90625 129.519531 66.828125 129.519531 65.5 C 129.519531 64.171875 128.441406 63.097656 127.113281 63.097656 "/>
<path style=" stroke:none;fill-rule:nonzero;fill:rgb(18.818665%,16.079712%,38.819885%);fill-opacity:1;" d="M 136.816406 63.097656 L 133.941406 63.097656 C 132.613281 63.097656 131.535156 64.175781 131.535156 65.503906 C 131.535156 66.828125 132.613281 67.90625 133.941406 67.90625 L 136.816406 67.90625 C 138.144531 67.90625 139.222656 66.828125 139.222656 65.503906 C 139.222656 64.175781 138.144531 63.097656 136.816406 63.097656 "/>
<path style=" stroke:none;fill-rule:nonzero;fill:rgb(18.818665%,16.079712%,38.819885%);fill-opacity:1;" d="M 53.792969 63.097656 L 50.917969 63.097656 C 49.589844 63.097656 48.511719 64.171875 48.511719 65.5 C 48.511719 66.828125 49.589844 67.90625 50.917969 67.90625 L 53.792969 67.90625 C 55.125 67.90625 56.203125 66.828125 56.203125 65.5 C 56.203125 64.171875 55.125 63.097656 53.792969 63.097656 "/>
<g clip-path="url(#clip1)" clip-rule="nonzero">
<path style=" stroke:none;fill-rule:nonzero;fill:rgb(18.818665%,16.079712%,38.819885%);fill-opacity:1;" d="M 165.667969 182.691406 C 161.601562 182.691406 158.292969 179.386719 158.292969 175.328125 C 158.292969 171.265625 161.601562 167.964844 165.667969 167.964844 C 169.734375 167.964844 173.042969 171.265625 173.042969 175.328125 C 173.042969 179.386719 169.734375 182.691406 165.667969 182.691406 Z M 125.175781 175.328125 C 125.175781 179.386719 121.867188 182.691406 117.800781 182.691406 C 113.734375 182.691406 110.425781 179.386719 110.425781 175.328125 C 110.425781 171.265625 113.734375 167.964844 117.800781 167.964844 C 121.867188 167.964844 125.175781 171.265625 125.175781 175.328125 Z M 77.308594 175.328125 C 77.308594 179.386719 74 182.691406 69.933594 182.691406 C 65.867188 182.691406 62.558594 179.386719 62.558594 175.328125 C 62.558594 171.265625 65.867188 167.964844 69.933594 167.964844 C 74 167.964844 77.308594 171.265625 77.308594 175.328125 Z M 29.445312 175.328125 C 29.445312 179.386719 26.136719 182.691406 22.070312 182.691406 C 18.003906 182.691406 14.695312 179.386719 14.695312 175.328125 C 14.695312 171.265625 18.003906 167.964844 22.070312 167.964844 C 26.136719 167.964844 29.445312 171.265625 29.445312 175.328125 Z M 45.597656 132.835938 L 45.597656 75.800781 L 142.136719 75.800781 L 142.136719 132.835938 C 142.136719 132.996094 142.007812 133.125 141.847656 133.125 L 45.886719 133.125 C 45.726562 133.125 45.597656 132.996094 45.597656 132.835938 Z M 12.460938 71.25 C 12.460938 57.386719 22.375 45.585938 36.027344 43.195312 C 36.976562 43.027344 37.734375 42.3125 37.957031 41.378906 C 43.023438 19.847656 62.042969 4.808594 84.214844 4.808594 C 98.617188 4.808594 112.085938 11.234375 121.167969 22.433594 C 121.859375 23.285156 123.035156 23.5625 124.03125 23.113281 C 126.726562 21.894531 129.589844 21.277344 132.550781 21.277344 C 143.820312 21.277344 153.101562 30.433594 153.242188 41.6875 C 153.257812 42.738281 153.953125 43.65625 154.957031 43.960938 C 166.917969 47.546875 175.273438 58.769531 175.273438 71.25 C 175.273438 86.890625 162.585938 99.621094 146.953125 99.734375 L 146.953125 59.542969 C 146.953125 56.734375 144.660156 54.445312 141.847656 54.445312 L 45.886719 54.445312 C 43.074219 54.445312 40.785156 56.734375 40.785156 59.542969 L 40.785156 99.734375 C 25.148438 99.621094 12.460938 86.890625 12.460938 71.25 Z M 142.136719 70.996094 L 45.597656 70.996094 L 45.597656 59.542969 C 45.597656 59.382812 45.726562 59.253906 45.886719 59.253906 L 141.847656 59.253906 C 142.007812 59.253906 142.136719 59.382812 142.136719 59.542969 Z M 168.074219 163.394531 L 168.074219 155.019531 C 168.074219 153.691406 166.996094 152.617188 165.667969 152.617188 L 96.273438 152.617188 L 96.273438 137.933594 L 141.847656 137.933594 C 144.660156 137.933594 146.953125 135.644531 146.953125 132.835938 L 146.953125 104.542969 C 165.242188 104.429688 180.085938 89.539062 180.085938 71.25 C 180.085938 57.238281 171.078125 44.582031 157.976562 39.890625 C 156.917969 26.828125 145.859375 16.472656 132.550781 16.472656 C 129.523438 16.472656 126.570312 16.996094 123.753906 18.03125 C 113.785156 6.550781 99.476562 0 84.214844 0 C 60.320312 0 39.746094 15.863281 33.648438 38.769531 C 18.488281 42.160156 7.648438 55.574219 7.648438 71.25 C 7.648438 89.539062 22.492188 104.429688 40.785156 104.542969 L 40.785156 132.835938 C 40.785156 135.644531 43.074219 137.933594 45.886719 137.933594 L 91.460938 137.933594 L 91.460938 152.617188 L 22.070312 152.617188 C 20.738281 152.617188 19.660156 153.691406 19.660156 155.019531 L 19.660156 163.394531 C 14.089844 164.515625 9.878906 169.4375 9.878906 175.328125 C 9.878906 182.039062 15.347656 187.5 22.070312 187.5 C 28.789062 187.5 34.257812 182.039062 34.257812 175.328125 C 34.257812 169.4375 30.046875 164.515625 24.476562 163.394531 L 24.476562 157.421875 L 67.527344 157.421875 L 67.527344 163.394531 C 61.957031 164.515625 57.746094 169.4375 57.746094 175.328125 C 57.746094 182.039062 63.214844 187.5 69.933594 187.5 C 76.65625 187.5 82.125 182.039062 82.125 175.328125 C 82.125 169.4375 77.914062 164.515625 72.34375 163.394531 L 72.34375 157.421875 L 115.394531 157.421875 L 115.394531 163.394531 C 109.820312 164.515625 105.613281 169.4375 105.613281 175.328125 C 105.613281 182.039062 111.078125 187.5 117.800781 187.5 C 124.519531 187.5 129.988281 182.039062 129.988281 175.328125 C 129.988281 169.4375 125.777344 164.515625 120.207031 163.394531 L 120.207031 157.421875 L 163.257812 157.421875 L 163.257812 163.394531 C 157.6875 164.515625 153.476562 169.4375 153.476562 175.328125 C 153.476562 182.039062 158.945312 187.5 165.667969 187.5 C 172.386719 187.5 177.855469 182.039062 177.855469 175.328125 C 177.855469 169.4375 173.644531 164.515625 168.074219 163.394531 "/>
</g>
</g>
</svg>
