<?xml version="1.0" encoding="UTF-8"?>
<svg xmlns="http://www.w3.org/2000/svg" xmlns:xlink="http://www.w3.org/1999/xlink" width="187.5pt" height="187.499995pt" viewBox="0 0 187.5 187.499995" version="1.2">
<defs>
<clipPath id="clip1">
  <path d="M 0 3.164062 L 138 3.164062 L 138 130 L 0 130 Z M 0 3.164062 "/>
</clipPath>
<clipPath id="clip2">
  <path d="M 84 112 L 187 112 L 187 138 L 84 138 Z M 84 112 "/>
</clipPath>
<clipPath id="clip3">
  <path d="M 84 50 L 187 50 L 187 162 L 84 162 Z M 84 50 "/>
</clipPath>
<clipPath id="clip4">
  <path d="M 84 65 L 187 65 L 187 184.664062 L 84 184.664062 Z M 84 65 "/>
</clipPath>
</defs>
<g id="surface1">
<path style=" stroke:none;fill-rule:nonzero;fill:rgb(100%,100%,100%);fill-opacity:1;" d="M 145.289062 62.621094 C 162.46875 62.621094 176.527344 76.703125 176.527344 93.914062 C 176.527344 111.125 162.46875 125.207031 145.289062 125.207031 L 35.960938 125.207031 C 18.78125 125.207031 4.726562 111.125 4.726562 93.914062 C 4.726562 76.703125 18.78125 62.621094 35.960938 62.621094 L 43.773438 62.621094 L 43.773438 54.796875 C 43.773438 28.824219 64.699219 7.859375 90.625 7.859375 C 116.550781 7.859375 137.480469 28.824219 137.480469 54.796875 L 137.480469 62.621094 Z M 145.289062 62.621094 "/>
<path style=" stroke:none;fill-rule:nonzero;fill:rgb(100%,100%,100%);fill-opacity:1;" d="M 135.917969 54.796875 C 109.992188 54.796875 89.066406 61.839844 89.066406 70.445312 L 89.066406 164.324219 C 89.066406 172.929688 109.992188 179.96875 135.917969 179.96875 C 161.84375 179.96875 182.773438 172.929688 182.773438 164.324219 L 182.773438 70.445312 C 182.773438 61.839844 161.84375 54.796875 135.917969 54.796875 Z M 135.917969 54.796875 "/>
<g clip-path="url(#clip1)" clip-rule="nonzero">
<path style=" stroke:none;fill-rule:nonzero;fill:rgb(18.818665%,16.079712%,38.819885%);fill-opacity:1;" d="M 67.199219 129.902344 L 35.960938 129.902344 C 16.128906 129.902344 0.0390625 113.785156 0.0390625 93.914062 C 0.0390625 74.042969 16.128906 57.925781 35.960938 57.925781 L 39.085938 57.925781 L 39.085938 54.796875 C 39.085938 26.320312 62.199219 3.164062 90.625 3.164062 C 110.460938 3.164062 128.734375 14.742188 137.167969 32.734375 C 138.261719 35.082031 137.324219 37.898438 134.980469 38.996094 C 132.640625 40.089844 129.828125 39.152344 128.734375 36.804688 C 121.863281 22.097656 106.871094 12.550781 90.625 12.550781 C 67.355469 12.550781 48.457031 31.484375 48.457031 54.796875 L 48.457031 62.621094 C 48.457031 65.28125 46.425781 67.316406 43.773438 67.316406 L 35.960938 67.316406 C 21.28125 67.316406 9.410156 79.207031 9.410156 93.914062 C 9.410156 108.621094 21.28125 120.511719 35.960938 120.511719 L 67.199219 120.511719 C 69.855469 120.511719 71.882812 122.546875 71.882812 125.207031 C 71.882812 127.867188 69.855469 129.902344 67.199219 129.902344 Z M 67.199219 129.902344 "/>
</g>
<g clip-path="url(#clip2)" clip-rule="nonzero">
<path style=" stroke:none;fill-rule:nonzero;fill:rgb(100%,43.528748%,38.038635%);fill-opacity:1;" d="M 135.917969 137.722656 C 100.464844 137.722656 84.378906 127.242188 84.378906 117.382812 C 84.378906 114.722656 86.410156 112.691406 89.066406 112.691406 C 91.71875 112.691406 93.75 114.722656 93.75 117.382812 C 93.75 120.511719 108.585938 128.335938 135.917969 128.335938 C 163.25 128.335938 178.089844 120.511719 178.089844 117.382812 C 178.089844 114.722656 180.117188 112.691406 182.773438 112.691406 C 185.429688 112.691406 187.460938 114.722656 187.460938 117.382812 C 187.460938 127.242188 171.371094 137.722656 135.917969 137.722656 Z M 135.917969 137.722656 "/>
</g>
<g clip-path="url(#clip3)" clip-rule="nonzero">
<path style=" stroke:none;fill-rule:nonzero;fill:rgb(100%,43.528748%,38.038635%);fill-opacity:1;" d="M 135.917969 161.195312 C 100.464844 161.195312 84.378906 150.710938 84.378906 140.855469 C 84.378906 138.195312 86.410156 136.160156 89.066406 136.160156 C 91.71875 136.160156 93.75 138.195312 93.75 140.855469 C 93.75 143.984375 108.585938 151.804688 135.917969 151.804688 C 163.25 151.804688 178.089844 143.984375 178.089844 140.855469 C 178.089844 138.195312 180.117188 136.160156 182.773438 136.160156 C 185.429688 136.160156 187.460938 138.195312 187.460938 140.855469 C 187.460938 150.710938 171.371094 161.195312 135.917969 161.195312 Z M 135.917969 90.785156 C 100.464844 90.785156 84.378906 80.300781 84.378906 70.445312 C 84.378906 60.585938 100.464844 50.105469 135.917969 50.105469 C 171.371094 50.105469 187.460938 60.585938 187.460938 70.445312 C 187.460938 80.300781 171.371094 90.785156 135.917969 90.785156 Z M 135.917969 59.492188 C 108.585938 59.492188 93.75 67.316406 93.75 70.445312 C 93.75 73.574219 108.585938 81.398438 135.917969 81.398438 C 163.25 81.398438 178.089844 73.574219 178.089844 70.445312 C 178.089844 67.316406 163.25 59.492188 135.917969 59.492188 Z M 135.917969 59.492188 "/>
</g>
<g clip-path="url(#clip4)" clip-rule="nonzero">
<path style=" stroke:none;fill-rule:nonzero;fill:rgb(100%,43.528748%,38.038635%);fill-opacity:1;" d="M 135.917969 184.664062 C 100.464844 184.664062 84.378906 174.179688 84.378906 164.324219 L 84.378906 93.914062 C 84.378906 91.253906 86.410156 89.21875 89.066406 89.21875 C 91.71875 89.21875 93.75 91.253906 93.75 93.914062 C 93.75 97.042969 108.585938 104.867188 135.917969 104.867188 C 163.25 104.867188 178.089844 97.042969 178.089844 93.914062 L 178.089844 70.445312 C 178.089844 67.785156 180.117188 65.75 182.773438 65.75 C 185.429688 65.75 187.460938 67.785156 187.460938 70.445312 L 187.460938 164.324219 C 187.460938 174.179688 171.371094 184.664062 135.917969 184.664062 Z M 93.75 106.117188 L 93.75 164.324219 C 93.75 167.453125 108.585938 175.277344 135.917969 175.277344 C 163.25 175.277344 178.089844 167.453125 178.089844 164.324219 L 178.089844 106.117188 C 169.8125 110.8125 155.910156 114.253906 135.917969 114.253906 C 115.929688 114.253906 102.027344 110.8125 93.75 106.117188 Z M 93.75 106.117188 "/>
</g>
</g>
</svg>
