<?xml version="1.0" encoding="UTF-8" standalone="no"?>
<svg
   xmlns:dc="http://purl.org/dc/elements/1.1/"
   xmlns:cc="http://creativecommons.org/ns#"
   xmlns:rdf="http://www.w3.org/1999/02/22-rdf-syntax-ns#"
   xmlns:svg="http://www.w3.org/2000/svg"
   xmlns="http://www.w3.org/2000/svg"
   xmlns:sodipodi="http://sodipodi.sourceforge.net/DTD/sodipodi-0.dtd"
   xmlns:inkscape="http://www.inkscape.org/namespaces/inkscape"
   inkscape:export-ydpi="192"
   inkscape:export-xdpi="192"
   inkscape:export-filename="/Users/dphilp/OneDrive - Intellischool Pty Ltd/Logos/Intellischool Icon - Round.png"
   inkscape:version="1.0rc1 (09960d6, 2020-04-09)"
   sodipodi:docname="Intellischool Icon - Round.svg"
   id="svg1214"
   version="1.2"
   viewBox="0 0 375 374.999991"
   height="374.999991pt"
   width="375pt">
  <metadata
     id="metadata1218">
    <rdf:RDF>
      <cc:Work
         rdf:about="">
        <dc:format>image/svg+xml</dc:format>
        <dc:type
           rdf:resource="http://purl.org/dc/dcmitype/StillImage" />
      </cc:Work>
    </rdf:RDF>
  </metadata>
  <sodipodi:namedview
     inkscape:current-layer="svg1214"
     inkscape:window-maximized="0"
     inkscape:window-y="0"
     inkscape:window-x="0"
     inkscape:cy="250"
     inkscape:cx="250"
     inkscape:zoom="1.336"
     showgrid="false"
     id="namedview1216"
     inkscape:window-height="1200"
     inkscape:window-width="1920"
     inkscape:pageshadow="2"
     inkscape:pageopacity="0"
     guidetolerance="10"
     gridtolerance="10"
     objecttolerance="10"
     borderopacity="1"
     bordercolor="#666666"
     pagecolor="#ffffff" />
  <defs
     id="defs1171">
    <clipPath
       id="clip1">
      <path
         id="path833"
         d="M 83.164062 126 L 265.722656 126 L 265.722656 272 L 83.164062 272 Z M 83.164062 126 " />
    </clipPath>
    <clipPath
       id="clip2">
      <path
         id="path836"
         d="M 215.960938 145.121094 C 208.035156 144.875 200.523438 146.441406 193.757812 149.40625 C 188.0625 151.878906 181.375 149.820312 178.15625 144.460938 C 171.554688 133.832031 159.753906 126.660156 146.296875 126.660156 C 137.550781 126.660156 129.460938 129.710938 123.105469 134.738281 C 112.871094 142.894531 107.917969 156 109.570312 169.019531 L 111.21875 181.710938 C 111.386719 183.277344 110.3125 184.679688 108.746094 184.84375 C 94.464844 186.328125 83.324219 198.277344 83.324219 212.945312 C 83.324219 225.472656 91.578125 236.183594 102.882812 239.808594 C 104.039062 240.140625 104.949219 241.128906 105.195312 242.28125 C 109.320312 259.257812 124.589844 271.785156 142.832031 271.785156 C 156.699219 271.785156 168.832031 264.535156 175.683594 253.574219 C 180.46875 245.910156 189.714844 242.28125 198.296875 245.085938 C 203.25 246.734375 208.613281 247.558594 214.144531 247.558594 C 242.207031 247.558594 264.988281 225.058594 265.398438 197.203125 C 265.976562 169.351562 243.773438 146.027344 215.960938 145.121094 Z M 215.960938 145.121094 " />
    </clipPath>
    <linearGradient
       gradientTransform="matrix(0.82537,0,0,0.824099,83.322887,120.8103)"
       y2="95.099998"
       x2="220.991025"
       y1="95.099998"
       x1="-0.00000136091"
       gradientUnits="userSpaceOnUse"
       id="linear0">
      <stop
         id="stop839"
         style="stop-color:rgb(74.099731%,35.299683%,31.399536%);stop-opacity:1;"
         offset="0" />
      <stop
         id="stop841"
         style="stop-color:rgb(74.200439%,35.331726%,31.425476%);stop-opacity:1;"
         offset="0.0078125" />
      <stop
         id="stop843"
         style="stop-color:rgb(74.401855%,35.395813%,31.47583%);stop-opacity:1;"
         offset="0.015625" />
      <stop
         id="stop845"
         style="stop-color:rgb(74.604797%,35.4599%,31.52771%);stop-opacity:1;"
         offset="0.0234375" />
      <stop
         id="stop847"
         style="stop-color:rgb(74.807739%,35.523987%,31.57959%);stop-opacity:1;"
         offset="0.03125" />
      <stop
         id="stop849"
         style="stop-color:rgb(75.010681%,35.588074%,31.63147%);stop-opacity:1;"
         offset="0.0390625" />
      <stop
         id="stop851"
         style="stop-color:rgb(75.212097%,35.652161%,31.68335%);stop-opacity:1;"
         offset="0.046875" />
      <stop
         id="stop853"
         style="stop-color:rgb(75.415039%,35.716248%,31.735229%);stop-opacity:1;"
         offset="0.0546875" />
      <stop
         id="stop855"
         style="stop-color:rgb(75.617981%,35.780334%,31.785583%);stop-opacity:1;"
         offset="0.0625" />
      <stop
         id="stop857"
         style="stop-color:rgb(75.820923%,35.844421%,31.837463%);stop-opacity:1;"
         offset="0.0703125" />
      <stop
         id="stop859"
         style="stop-color:rgb(76.022339%,35.908508%,31.889343%);stop-opacity:1;"
         offset="0.078125" />
      <stop
         id="stop861"
         style="stop-color:rgb(76.225281%,35.972595%,31.941223%);stop-opacity:1;"
         offset="0.0859375" />
      <stop
         id="stop863"
         style="stop-color:rgb(76.428223%,36.036682%,31.993103%);stop-opacity:1;"
         offset="0.09375" />
      <stop
         id="stop865"
         style="stop-color:rgb(76.631165%,36.100769%,32.044983%);stop-opacity:1;"
         offset="0.101562" />
      <stop
         id="stop867"
         style="stop-color:rgb(76.832581%,36.164856%,32.095337%);stop-opacity:1;"
         offset="0.109375" />
      <stop
         id="stop869"
         style="stop-color:rgb(77.035522%,36.228943%,32.147217%);stop-opacity:1;"
         offset="0.117187" />
      <stop
         id="stop871"
         style="stop-color:rgb(77.238464%,36.29303%,32.199097%);stop-opacity:1;"
         offset="0.125" />
      <stop
         id="stop873"
         style="stop-color:rgb(77.441406%,36.357117%,32.250977%);stop-opacity:1;"
         offset="0.132812" />
      <stop
         id="stop875"
         style="stop-color:rgb(77.642822%,36.421204%,32.302856%);stop-opacity:1;"
         offset="0.140625" />
      <stop
         id="stop877"
         style="stop-color:rgb(77.845764%,36.485291%,32.35321%);stop-opacity:1;"
         offset="0.148438" />
      <stop
         id="stop879"
         style="stop-color:rgb(78.048706%,36.549377%,32.40509%);stop-opacity:1;"
         offset="0.15625" />
      <stop
         id="stop881"
         style="stop-color:rgb(78.250122%,36.613464%,32.45697%);stop-opacity:1;"
         offset="0.164062" />
      <stop
         id="stop883"
         style="stop-color:rgb(78.453064%,36.677551%,32.50885%);stop-opacity:1;"
         offset="0.171875" />
      <stop
         id="stop885"
         style="stop-color:rgb(78.656006%,36.741638%,32.56073%);stop-opacity:1;"
         offset="0.179687" />
      <stop
         id="stop887"
         style="stop-color:rgb(78.858948%,36.805725%,32.61261%);stop-opacity:1;"
         offset="0.1875" />
      <stop
         id="stop889"
         style="stop-color:rgb(79.060364%,36.869812%,32.662964%);stop-opacity:1;"
         offset="0.195312" />
      <stop
         id="stop891"
         style="stop-color:rgb(79.263306%,36.933899%,32.714844%);stop-opacity:1;"
         offset="0.203125" />
      <stop
         id="stop893"
         style="stop-color:rgb(79.466248%,36.997986%,32.766724%);stop-opacity:1;"
         offset="0.210937" />
      <stop
         id="stop895"
         style="stop-color:rgb(79.669189%,37.062073%,32.818604%);stop-opacity:1;"
         offset="0.21875" />
      <stop
         id="stop897"
         style="stop-color:rgb(79.870605%,37.12616%,32.870483%);stop-opacity:1;"
         offset="0.226562" />
      <stop
         id="stop899"
         style="stop-color:rgb(80.073547%,37.190247%,32.922363%);stop-opacity:1;"
         offset="0.234375" />
      <stop
         id="stop901"
         style="stop-color:rgb(80.276489%,37.254333%,32.972717%);stop-opacity:1;"
         offset="0.242187" />
      <stop
         id="stop903"
         style="stop-color:rgb(80.479431%,37.319946%,33.024597%);stop-opacity:1;"
         offset="0.25" />
      <stop
         id="stop905"
         style="stop-color:rgb(80.680847%,37.384033%,33.076477%);stop-opacity:1;"
         offset="0.257812" />
      <stop
         id="stop907"
         style="stop-color:rgb(80.883789%,37.44812%,33.128357%);stop-opacity:1;"
         offset="0.265625" />
      <stop
         id="stop909"
         style="stop-color:rgb(81.086731%,37.512207%,33.180237%);stop-opacity:1;"
         offset="0.273438" />
      <stop
         id="stop911"
         style="stop-color:rgb(81.289673%,37.576294%,33.232117%);stop-opacity:1;"
         offset="0.28125" />
      <stop
         id="stop913"
         style="stop-color:rgb(81.491089%,37.640381%,33.282471%);stop-opacity:1;"
         offset="0.289062" />
      <stop
         id="stop915"
         style="stop-color:rgb(81.694031%,37.704468%,33.334351%);stop-opacity:1;"
         offset="0.296875" />
      <stop
         id="stop917"
         style="stop-color:rgb(81.896973%,37.768555%,33.38623%);stop-opacity:1;"
         offset="0.304688" />
      <stop
         id="stop919"
         style="stop-color:rgb(82.099915%,37.832642%,33.43811%);stop-opacity:1;"
         offset="0.3125" />
      <stop
         id="stop921"
         style="stop-color:rgb(82.301331%,37.896729%,33.48999%);stop-opacity:1;"
         offset="0.320312" />
      <stop
         id="stop923"
         style="stop-color:rgb(82.504272%,37.960815%,33.540344%);stop-opacity:1;"
         offset="0.328125" />
      <stop
         id="stop925"
         style="stop-color:rgb(82.707214%,38.024902%,33.592224%);stop-opacity:1;"
         offset="0.335937" />
      <stop
         id="stop927"
         style="stop-color:rgb(82.910156%,38.088989%,33.644104%);stop-opacity:1;"
         offset="0.34375" />
      <stop
         id="stop929"
         style="stop-color:rgb(83.111572%,38.153076%,33.695984%);stop-opacity:1;"
         offset="0.351562" />
      <stop
         id="stop931"
         style="stop-color:rgb(83.314514%,38.217163%,33.747864%);stop-opacity:1;"
         offset="0.359375" />
      <stop
         id="stop933"
         style="stop-color:rgb(83.517456%,38.28125%,33.799744%);stop-opacity:1;"
         offset="0.367187" />
      <stop
         id="stop935"
         style="stop-color:rgb(83.718872%,38.345337%,33.850098%);stop-opacity:1;"
         offset="0.375" />
      <stop
         id="stop937"
         style="stop-color:rgb(83.921814%,38.409424%,33.901978%);stop-opacity:1;"
         offset="0.382812" />
      <stop
         id="stop939"
         style="stop-color:rgb(84.124756%,38.473511%,33.953857%);stop-opacity:1;"
         offset="0.390625" />
      <stop
         id="stop941"
         style="stop-color:rgb(84.327698%,38.537598%,34.005737%);stop-opacity:1;"
         offset="0.398437" />
      <stop
         id="stop943"
         style="stop-color:rgb(84.529114%,38.601685%,34.057617%);stop-opacity:1;"
         offset="0.40625" />
      <stop
         id="stop945"
         style="stop-color:rgb(84.732056%,38.665771%,34.109497%);stop-opacity:1;"
         offset="0.414062" />
      <stop
         id="stop947"
         style="stop-color:rgb(84.934998%,38.729858%,34.159851%);stop-opacity:1;"
         offset="0.421875" />
      <stop
         id="stop949"
         style="stop-color:rgb(85.137939%,38.793945%,34.211731%);stop-opacity:1;"
         offset="0.429687" />
      <stop
         id="stop951"
         style="stop-color:rgb(85.339355%,38.858032%,34.263611%);stop-opacity:1;"
         offset="0.4375" />
      <stop
         id="stop953"
         style="stop-color:rgb(85.542297%,38.922119%,34.315491%);stop-opacity:1;"
         offset="0.445312" />
      <stop
         id="stop955"
         style="stop-color:rgb(85.745239%,38.986206%,34.367371%);stop-opacity:1;"
         offset="0.453125" />
      <stop
         id="stop957"
         style="stop-color:rgb(85.948181%,39.050293%,34.41925%);stop-opacity:1;"
         offset="0.460938" />
      <stop
         id="stop959"
         style="stop-color:rgb(86.149597%,39.11438%,34.469604%);stop-opacity:1;"
         offset="0.46875" />
      <stop
         id="stop961"
         style="stop-color:rgb(86.352539%,39.178467%,34.521484%);stop-opacity:1;"
         offset="0.476562" />
      <stop
         id="stop963"
         style="stop-color:rgb(86.555481%,39.242554%,34.573364%);stop-opacity:1;"
         offset="0.484375" />
      <stop
         id="stop965"
         style="stop-color:rgb(86.758423%,39.306641%,34.625244%);stop-opacity:1;"
         offset="0.492188" />
      <stop
         id="stop967"
         style="stop-color:rgb(86.959839%,39.370728%,34.677124%);stop-opacity:1;"
         offset="0.5" />
      <stop
         id="stop969"
         style="stop-color:rgb(87.162781%,39.434814%,34.727478%);stop-opacity:1;"
         offset="0.507813" />
      <stop
         id="stop971"
         style="stop-color:rgb(87.365723%,39.498901%,34.779358%);stop-opacity:1;"
         offset="0.515625" />
      <stop
         id="stop973"
         style="stop-color:rgb(87.568665%,39.562988%,34.831238%);stop-opacity:1;"
         offset="0.523438" />
      <stop
         id="stop975"
         style="stop-color:rgb(87.770081%,39.627075%,34.883118%);stop-opacity:1;"
         offset="0.53125" />
      <stop
         id="stop977"
         style="stop-color:rgb(87.973022%,39.691162%,34.934998%);stop-opacity:1;"
         offset="0.539062" />
      <stop
         id="stop979"
         style="stop-color:rgb(88.175964%,39.756775%,34.986877%);stop-opacity:1;"
         offset="0.546875" />
      <stop
         id="stop981"
         style="stop-color:rgb(88.378906%,39.820862%,35.037231%);stop-opacity:1;"
         offset="0.554688" />
      <stop
         id="stop983"
         style="stop-color:rgb(88.580322%,39.884949%,35.089111%);stop-opacity:1;"
         offset="0.5625" />
      <stop
         id="stop985"
         style="stop-color:rgb(88.783264%,39.949036%,35.140991%);stop-opacity:1;"
         offset="0.570312" />
      <stop
         id="stop987"
         style="stop-color:rgb(88.986206%,40.013123%,35.192871%);stop-opacity:1;"
         offset="0.578125" />
      <stop
         id="stop989"
         style="stop-color:rgb(89.187622%,40.077209%,35.244751%);stop-opacity:1;"
         offset="0.585937" />
      <stop
         id="stop991"
         style="stop-color:rgb(89.390564%,40.141296%,35.296631%);stop-opacity:1;"
         offset="0.59375" />
      <stop
         id="stop993"
         style="stop-color:rgb(89.593506%,40.205383%,35.346985%);stop-opacity:1;"
         offset="0.601562" />
      <stop
         id="stop995"
         style="stop-color:rgb(89.796448%,40.26947%,35.398865%);stop-opacity:1;"
         offset="0.609375" />
      <stop
         id="stop997"
         style="stop-color:rgb(89.997864%,40.333557%,35.450745%);stop-opacity:1;"
         offset="0.617188" />
      <stop
         id="stop999"
         style="stop-color:rgb(90.200806%,40.397644%,35.502625%);stop-opacity:1;"
         offset="0.625" />
      <stop
         id="stop1001"
         style="stop-color:rgb(90.403748%,40.461731%,35.554504%);stop-opacity:1;"
         offset="0.632812" />
      <stop
         id="stop1003"
         style="stop-color:rgb(90.606689%,40.525818%,35.606384%);stop-opacity:1;"
         offset="0.640625" />
      <stop
         id="stop1005"
         style="stop-color:rgb(90.808105%,40.589905%,35.656738%);stop-opacity:1;"
         offset="0.648438" />
      <stop
         id="stop1007"
         style="stop-color:rgb(91.011047%,40.653992%,35.708618%);stop-opacity:1;"
         offset="0.65625" />
      <stop
         id="stop1009"
         style="stop-color:rgb(91.213989%,40.718079%,35.760498%);stop-opacity:1;"
         offset="0.664062" />
      <stop
         id="stop1011"
         style="stop-color:rgb(91.416931%,40.782166%,35.812378%);stop-opacity:1;"
         offset="0.671875" />
      <stop
         id="stop1013"
         style="stop-color:rgb(91.618347%,40.846252%,35.864258%);stop-opacity:1;"
         offset="0.679687" />
      <stop
         id="stop1015"
         style="stop-color:rgb(91.821289%,40.910339%,35.914612%);stop-opacity:1;"
         offset="0.6875" />
      <stop
         id="stop1017"
         style="stop-color:rgb(92.024231%,40.974426%,35.966492%);stop-opacity:1;"
         offset="0.695312" />
      <stop
         id="stop1019"
         style="stop-color:rgb(92.227173%,41.038513%,36.018372%);stop-opacity:1;"
         offset="0.703125" />
      <stop
         id="stop1021"
         style="stop-color:rgb(92.428589%,41.1026%,36.070251%);stop-opacity:1;"
         offset="0.710937" />
      <stop
         id="stop1023"
         style="stop-color:rgb(92.631531%,41.166687%,36.122131%);stop-opacity:1;"
         offset="0.71875" />
      <stop
         id="stop1025"
         style="stop-color:rgb(92.834473%,41.230774%,36.174011%);stop-opacity:1;"
         offset="0.726562" />
      <stop
         id="stop1027"
         style="stop-color:rgb(93.037415%,41.294861%,36.224365%);stop-opacity:1;"
         offset="0.734375" />
      <stop
         id="stop1029"
         style="stop-color:rgb(93.238831%,41.358948%,36.276245%);stop-opacity:1;"
         offset="0.742188" />
      <stop
         id="stop1031"
         style="stop-color:rgb(93.441772%,41.423035%,36.328125%);stop-opacity:1;"
         offset="0.75" />
      <stop
         id="stop1033"
         style="stop-color:rgb(93.644714%,41.487122%,36.380005%);stop-opacity:1;"
         offset="0.757812" />
      <stop
         id="stop1035"
         style="stop-color:rgb(93.847656%,41.551208%,36.431885%);stop-opacity:1;"
         offset="0.765625" />
      <stop
         id="stop1037"
         style="stop-color:rgb(94.049072%,41.615295%,36.483765%);stop-opacity:1;"
         offset="0.773438" />
      <stop
         id="stop1039"
         style="stop-color:rgb(94.252014%,41.679382%,36.534119%);stop-opacity:1;"
         offset="0.78125" />
      <stop
         id="stop1041"
         style="stop-color:rgb(94.454956%,41.743469%,36.585999%);stop-opacity:1;"
         offset="0.789062" />
      <stop
         id="stop1043"
         style="stop-color:rgb(94.656372%,41.807556%,36.637878%);stop-opacity:1;"
         offset="0.796875" />
      <stop
         id="stop1045"
         style="stop-color:rgb(94.859314%,41.871643%,36.689758%);stop-opacity:1;"
         offset="0.804687" />
      <stop
         id="stop1047"
         style="stop-color:rgb(95.062256%,41.93573%,36.741638%);stop-opacity:1;"
         offset="0.8125" />
      <stop
         id="stop1049"
         style="stop-color:rgb(95.265198%,41.999817%,36.793518%);stop-opacity:1;"
         offset="0.820312" />
      <stop
         id="stop1051"
         style="stop-color:rgb(95.466614%,42.063904%,36.843872%);stop-opacity:1;"
         offset="0.828125" />
      <stop
         id="stop1053"
         style="stop-color:rgb(95.669556%,42.127991%,36.895752%);stop-opacity:1;"
         offset="0.835938" />
      <stop
         id="stop1055"
         style="stop-color:rgb(95.872498%,42.192078%,36.947632%);stop-opacity:1;"
         offset="0.84375" />
      <stop
         id="stop1057"
         style="stop-color:rgb(96.075439%,42.25769%,36.999512%);stop-opacity:1;"
         offset="0.851562" />
      <stop
         id="stop1059"
         style="stop-color:rgb(96.276855%,42.321777%,37.051392%);stop-opacity:1;"
         offset="0.859375" />
      <stop
         id="stop1061"
         style="stop-color:rgb(96.479797%,42.385864%,37.101746%);stop-opacity:1;"
         offset="0.867188" />
      <stop
         id="stop1063"
         style="stop-color:rgb(96.682739%,42.449951%,37.153625%);stop-opacity:1;"
         offset="0.875" />
      <stop
         id="stop1065"
         style="stop-color:rgb(96.885681%,42.514038%,37.205505%);stop-opacity:1;"
         offset="0.882812" />
      <stop
         id="stop1067"
         style="stop-color:rgb(97.087097%,42.578125%,37.257385%);stop-opacity:1;"
         offset="0.890625" />
      <stop
         id="stop1069"
         style="stop-color:rgb(97.290039%,42.642212%,37.309265%);stop-opacity:1;"
         offset="0.898438" />
      <stop
         id="stop1071"
         style="stop-color:rgb(97.492981%,42.706299%,37.361145%);stop-opacity:1;"
         offset="0.90625" />
      <stop
         id="stop1073"
         style="stop-color:rgb(97.695923%,42.770386%,37.411499%);stop-opacity:1;"
         offset="0.914062" />
      <stop
         id="stop1075"
         style="stop-color:rgb(97.897339%,42.834473%,37.463379%);stop-opacity:1;"
         offset="0.921875" />
      <stop
         id="stop1077"
         style="stop-color:rgb(98.100281%,42.89856%,37.515259%);stop-opacity:1;"
         offset="0.929687" />
      <stop
         id="stop1079"
         style="stop-color:rgb(98.303223%,42.962646%,37.567139%);stop-opacity:1;"
         offset="0.9375" />
      <stop
         id="stop1081"
         style="stop-color:rgb(98.506165%,43.026733%,37.619019%);stop-opacity:1;"
         offset="0.945313" />
      <stop
         id="stop1083"
         style="stop-color:rgb(98.707581%,43.09082%,37.670898%);stop-opacity:1;"
         offset="0.953125" />
      <stop
         id="stop1085"
         style="stop-color:rgb(98.910522%,43.154907%,37.721252%);stop-opacity:1;"
         offset="0.960938" />
      <stop
         id="stop1087"
         style="stop-color:rgb(99.113464%,43.218994%,37.773132%);stop-opacity:1;"
         offset="0.96875" />
      <stop
         id="stop1089"
         style="stop-color:rgb(99.316406%,43.283081%,37.825012%);stop-opacity:1;"
         offset="0.976562" />
      <stop
         id="stop1091"
         style="stop-color:rgb(99.517822%,43.347168%,37.876892%);stop-opacity:1;"
         offset="0.984375" />
      <stop
         id="stop1093"
         style="stop-color:rgb(99.809265%,43.438721%,37.950134%);stop-opacity:1;"
         offset="1" />
    </linearGradient>
    <clipPath
       id="clip3">
      <path
         id="path1096"
         d="M 187 256 L 207 256 L 207 274.917969 L 187 274.917969 Z M 187 256 " />
    </clipPath>
    <clipPath
       id="clip4">
      <path
         id="path1099"
         d="M 206.632812 265.441406 C 206.632812 266.054688 206.574219 266.667969 206.453125 267.273438 C 206.332031 267.878906 206.152344 268.464844 205.917969 269.035156 C 205.679688 269.605469 205.390625 270.144531 205.046875 270.660156 C 204.703125 271.171875 204.3125 271.648438 203.878906 272.082031 C 203.441406 272.519531 202.964844 272.910156 202.453125 273.25 C 201.9375 273.59375 201.394531 273.882812 200.824219 274.121094 C 200.253906 274.355469 199.664062 274.535156 199.058594 274.652344 C 198.453125 274.773438 197.839844 274.835938 197.222656 274.835938 C 196.605469 274.835938 195.996094 274.773438 195.386719 274.652344 C 194.78125 274.535156 194.195312 274.355469 193.625 274.121094 C 193.050781 273.882812 192.511719 273.59375 191.996094 273.25 C 191.484375 272.910156 191.007812 272.519531 190.570312 272.082031 C 190.132812 271.648438 189.742188 271.171875 189.402344 270.660156 C 189.058594 270.144531 188.765625 269.605469 188.53125 269.035156 C 188.292969 268.464844 188.117188 267.878906 187.996094 267.273438 C 187.875 266.667969 187.816406 266.054688 187.816406 265.441406 C 187.816406 264.824219 187.875 264.210938 187.996094 263.605469 C 188.117188 263 188.292969 262.414062 188.53125 261.84375 C 188.765625 261.273438 189.058594 260.734375 189.402344 260.21875 C 189.742188 259.707031 190.132812 259.234375 190.570312 258.796875 C 191.007812 258.359375 191.484375 257.972656 191.996094 257.628906 C 192.511719 257.285156 193.050781 256.996094 193.625 256.761719 C 194.195312 256.523438 194.78125 256.347656 195.386719 256.226562 C 195.996094 256.105469 196.605469 256.046875 197.222656 256.046875 C 197.839844 256.046875 198.453125 256.105469 199.058594 256.226562 C 199.664062 256.347656 200.253906 256.523438 200.824219 256.761719 C 201.394531 256.996094 201.9375 257.285156 202.453125 257.628906 C 202.964844 257.972656 203.441406 258.359375 203.878906 258.796875 C 204.3125 259.234375 204.703125 259.707031 205.046875 260.21875 C 205.390625 260.734375 205.679688 261.273438 205.917969 261.84375 C 206.152344 262.414062 206.332031 263 206.453125 263.605469 C 206.574219 264.210938 206.632812 264.824219 206.632812 265.441406 Z M 206.632812 265.441406 " />
    </clipPath>
    <linearGradient
       gradientTransform="matrix(0.82537,0,0,0.824099,83.322887,120.8103)"
       y2="95.099998"
       x2="149.399989"
       y1="95.099998"
       x1="126.599986"
       gradientUnits="userSpaceOnUse"
       id="linear1">
      <stop
         id="stop1102"
         style="stop-color:rgb(88.951111%,40.000916%,35.183716%);stop-opacity:1;"
         offset="0" />
      <stop
         id="stop1104"
         style="stop-color:rgb(89.117432%,40.054321%,35.22644%);stop-opacity:1;"
         offset="0.125" />
      <stop
         id="stop1106"
         style="stop-color:rgb(89.453125%,40.159607%,35.31189%);stop-opacity:1;"
         offset="0.25" />
      <stop
         id="stop1108"
         style="stop-color:rgb(89.787292%,40.266418%,35.397339%);stop-opacity:1;"
         offset="0.375" />
      <stop
         id="stop1110"
         style="stop-color:rgb(90.12146%,40.371704%,35.482788%);stop-opacity:1;"
         offset="0.5" />
      <stop
         id="stop1112"
         style="stop-color:rgb(90.455627%,40.47699%,35.566711%);stop-opacity:1;"
         offset="0.625" />
      <stop
         id="stop1114"
         style="stop-color:rgb(90.789795%,40.583801%,35.652161%);stop-opacity:1;"
         offset="0.75" />
      <stop
         id="stop1116"
         style="stop-color:rgb(91.123962%,40.689087%,35.73761%);stop-opacity:1;"
         offset="0.875" />
      <stop
         id="stop1118"
         style="stop-color:rgb(91.45813%,40.794373%,35.823059%);stop-opacity:1;"
         offset="1" />
    </linearGradient>
    <clipPath
       id="clip5">
      <path
         id="path1121"
         d="M 183 120.808594 L 202 120.808594 L 202 140 L 183 140 Z M 183 120.808594 " />
    </clipPath>
    <clipPath
       id="clip6">
      <path
         id="path1124"
         d="M 201.761719 130.121094 C 201.761719 130.734375 201.703125 131.339844 201.585938 131.9375 C 201.464844 132.539062 201.289062 133.121094 201.054688 133.6875 C 200.820312 134.25 200.53125 134.789062 200.191406 135.296875 C 199.851562 135.804688 199.464844 136.273438 199.03125 136.707031 C 198.597656 137.140625 198.128906 137.527344 197.617188 137.867188 C 197.109375 138.207031 196.570312 138.492188 196.007812 138.726562 C 195.441406 138.960938 194.855469 139.136719 194.257812 139.257812 C 193.65625 139.375 193.050781 139.433594 192.4375 139.433594 C 191.824219 139.433594 191.21875 139.375 190.617188 139.257812 C 190.015625 139.136719 189.433594 138.960938 188.867188 138.726562 C 188.300781 138.492188 187.765625 138.207031 187.253906 137.867188 C 186.746094 137.527344 186.273438 137.140625 185.839844 136.707031 C 185.410156 136.273438 185.023438 135.804688 184.683594 135.296875 C 184.339844 134.789062 184.054688 134.25 183.820312 133.6875 C 183.585938 133.121094 183.410156 132.539062 183.289062 131.9375 C 183.167969 131.339844 183.109375 130.734375 183.109375 130.121094 C 183.109375 129.511719 183.167969 128.90625 183.289062 128.304688 C 183.410156 127.707031 183.585938 127.125 183.820312 126.558594 C 184.054688 125.992188 184.339844 125.457031 184.683594 124.949219 C 185.023438 124.441406 185.410156 123.96875 185.84375 123.539062 C 186.273438 123.105469 186.746094 122.71875 187.253906 122.378906 C 187.765625 122.039062 188.300781 121.753906 188.867188 121.519531 C 189.433594 121.285156 190.015625 121.109375 190.617188 120.988281 C 191.21875 120.871094 191.824219 120.808594 192.4375 120.808594 C 193.050781 120.808594 193.65625 120.871094 194.257812 120.988281 C 194.855469 121.109375 195.441406 121.285156 196.007812 121.519531 C 196.570312 121.753906 197.109375 122.039062 197.617188 122.378906 C 198.128906 122.71875 198.597656 123.105469 199.03125 123.539062 C 199.464844 123.96875 199.851562 124.441406 200.191406 124.949219 C 200.53125 125.457031 200.820312 125.992188 201.054688 126.558594 C 201.289062 127.125 201.464844 127.707031 201.585938 128.304688 C 201.703125 128.90625 201.761719 129.511719 201.761719 130.121094 Z M 201.761719 130.121094 " />
    </clipPath>
    <linearGradient
       gradientTransform="matrix(0.82537,0,0,0.824099,83.322887,120.8103)"
       y2="95.099998"
       x2="143.499995"
       y1="95.099998"
       x1="120.899981"
       gradientUnits="userSpaceOnUse"
       id="linear2">
      <stop
         id="stop1127"
         style="stop-color:rgb(88.282776%,39.790344%,35.014343%);stop-opacity:1;"
         offset="0" />
      <stop
         id="stop1129"
         style="stop-color:rgb(88.447571%,39.842224%,35.055542%);stop-opacity:1;"
         offset="0.125" />
      <stop
         id="stop1131"
         style="stop-color:rgb(88.778687%,39.945984%,35.139465%);stop-opacity:1;"
         offset="0.25" />
      <stop
         id="stop1133"
         style="stop-color:rgb(89.111328%,40.05127%,35.224915%);stop-opacity:1;"
         offset="0.375" />
      <stop
         id="stop1135"
         style="stop-color:rgb(89.442444%,40.156555%,35.308838%);stop-opacity:1;"
         offset="0.5" />
      <stop
         id="stop1137"
         style="stop-color:rgb(89.77356%,40.261841%,35.392761%);stop-opacity:1;"
         offset="0.625" />
      <stop
         id="stop1139"
         style="stop-color:rgb(90.104675%,40.365601%,35.47821%);stop-opacity:1;"
         offset="0.75" />
      <stop
         id="stop1141"
         style="stop-color:rgb(90.435791%,40.470886%,35.562134%);stop-opacity:1;"
         offset="0.875" />
      <stop
         id="stop1143"
         style="stop-color:rgb(90.768433%,40.576172%,35.646057%);stop-opacity:1;"
         offset="1" />
    </linearGradient>
    <clipPath
       id="clip7">
      <path
         id="path1146"
         d="M 87 171 L 100 171 L 100 184 L 87 184 Z M 87 171 " />
    </clipPath>
    <clipPath
       id="clip8">
      <path
         id="path1149"
         d="M 99.335938 177.425781 C 99.335938 177.820312 99.296875 178.210938 99.21875 178.597656 C 99.140625 178.988281 99.027344 179.363281 98.875 179.726562 C 98.726562 180.09375 98.539062 180.441406 98.320312 180.769531 C 98.101562 181.097656 97.851562 181.402344 97.570312 181.679688 C 97.289062 181.960938 96.984375 182.207031 96.65625 182.429688 C 96.328125 182.648438 95.980469 182.832031 95.617188 182.984375 C 95.25 183.136719 94.875 183.25 94.484375 183.328125 C 94.097656 183.402344 93.707031 183.441406 93.308594 183.441406 C 92.914062 183.441406 92.523438 183.402344 92.132812 183.328125 C 91.746094 183.25 91.371094 183.136719 91.003906 182.984375 C 90.636719 182.832031 90.292969 182.648438 89.960938 182.429688 C 89.632812 182.207031 89.328125 181.960938 89.050781 181.679688 C 88.769531 181.402344 88.519531 181.097656 88.300781 180.769531 C 88.082031 180.441406 87.894531 180.09375 87.742188 179.726562 C 87.59375 179.363281 87.476562 178.988281 87.402344 178.597656 C 87.324219 178.210938 87.285156 177.820312 87.285156 177.425781 C 87.285156 177.03125 87.324219 176.640625 87.402344 176.253906 C 87.476562 175.863281 87.59375 175.488281 87.742188 175.125 C 87.894531 174.757812 88.082031 174.410156 88.300781 174.082031 C 88.519531 173.753906 88.769531 173.453125 89.050781 173.171875 C 89.328125 172.894531 89.632812 172.644531 89.960938 172.425781 C 90.292969 172.203125 90.636719 172.019531 91.003906 171.867188 C 91.371094 171.714844 91.746094 171.601562 92.132812 171.527344 C 92.523438 171.449219 92.914062 171.410156 93.308594 171.410156 C 93.707031 171.410156 94.097656 171.449219 94.484375 171.527344 C 94.875 171.601562 95.25 171.714844 95.617188 171.867188 C 95.980469 172.019531 96.328125 172.203125 96.65625 172.425781 C 96.984375 172.644531 97.289062 172.894531 97.570312 173.171875 C 97.851562 173.453125 98.101562 173.753906 98.320312 174.082031 C 98.539062 174.410156 98.726562 174.757812 98.875 175.125 C 99.027344 175.488281 99.140625 175.863281 99.21875 176.253906 C 99.296875 176.640625 99.335938 177.03125 99.335938 177.425781 Z M 99.335938 177.425781 " />
    </clipPath>
    <linearGradient
       gradientTransform="matrix(0.82537,0,0,0.824099,83.322887,120.8103)"
       y2="95.099998"
       x2="19.399997"
       y1="95.099998"
       x1="4.799995"
       gradientUnits="userSpaceOnUse"
       id="linear3">
      <stop
         id="stop1152"
         style="stop-color:rgb(74.662781%,35.47821%,31.542969%);stop-opacity:1;"
         offset="0" />
      <stop
         id="stop1154"
         style="stop-color:rgb(74.769592%,35.51178%,31.570435%);stop-opacity:1;"
         offset="0.125" />
      <stop
         id="stop1156"
         style="stop-color:rgb(74.983215%,35.578918%,31.62384%);stop-opacity:1;"
         offset="0.25" />
      <stop
         id="stop1158"
         style="stop-color:rgb(75.196838%,35.646057%,31.678772%);stop-opacity:1;"
         offset="0.375" />
      <stop
         id="stop1160"
         style="stop-color:rgb(75.411987%,35.714722%,31.733704%);stop-opacity:1;"
         offset="0.5" />
      <stop
         id="stop1162"
         style="stop-color:rgb(75.62561%,35.78186%,31.788635%);stop-opacity:1;"
         offset="0.625" />
      <stop
         id="stop1164"
         style="stop-color:rgb(75.839233%,35.850525%,31.842041%);stop-opacity:1;"
         offset="0.75" />
      <stop
         id="stop1166"
         style="stop-color:rgb(76.054382%,35.917664%,31.896973%);stop-opacity:1;"
         offset="0.875" />
      <stop
         id="stop1168"
         style="stop-color:rgb(76.268005%,35.986328%,31.951904%);stop-opacity:1;"
         offset="1" />
    </linearGradient>
  </defs>
  <path
     style="fill:#d9d9d9;fill-opacity:1;fill-rule:nonzero;stroke:none"
     d="m 187.5,0 c -3.07031,0 -6.13672,0.0742188 -9.19922,0.226562 -3.06641,0.148438 -6.125,0.375 -9.17969,0.675782 -3.05468,0.300781 -6.09765,0.675781 -9.13281,1.128906 -3.03516,0.449219 -6.05859,0.972656 -9.06641,1.570312 -3.01171,0.601563 -6.0039,1.273438 -8.98046,2.015626 -2.97657,0.746093 -5.9336,1.566406 -8.8711,2.457031 -2.93359,0.890625 -5.84765,1.851562 -8.73828,2.886719 -2.88672,1.035156 -5.75,2.136718 -8.58594,3.3125 -2.83593,1.171874 -5.64062,2.417968 -8.41406,3.730468 -2.77344,1.308594 -5.51172,2.6875 -8.218749,4.136719 -2.707031,1.445313 -5.375,2.957031 -8.007812,4.535156 -2.632813,1.578125 -5.222657,3.21875 -7.773438,4.921875 -2.554687,1.707032 -5.0625,3.472656 -7.527343,5.300782 -2.464844,1.828124 -4.882813,3.714843 -7.253907,5.660156 -2.371093,1.949218 -4.695312,3.953125 -6.96875,6.011718 -2.273437,2.0625 -4.496093,4.175782 -6.664062,6.347657 -2.171875,2.167969 -4.285157,4.390625 -6.347657,6.664062 -2.058593,2.273438 -4.0625,4.597657 -6.011718,6.96875 -1.945313,2.371094 -3.832032,4.789063 -5.660156,7.253907 -1.828126,2.464843 -3.59375,4.972656 -5.300782,7.527343 -1.703125,2.550781 -3.34375,5.140625 -4.921875,7.773438 -1.578125,2.632812 -3.089843,5.300781 -4.535156,8.007812 -1.449219,2.707029 -2.828125,5.445309 -4.136719,8.218749 -1.3125,2.77344 -2.558594,5.57813 -3.730468,8.41406 -1.175782,2.83594 -2.277344,5.69922 -3.3125,8.58594 -1.035157,2.89063 -1.996094,5.80469 -2.886719,8.73828 -0.890625,2.9375 -1.710938,5.89453 -2.453125,8.8711 -0.746094,2.97656 -1.417969,5.96875 -2.019532,8.98046 -0.597656,3.00782 -1.121093,6.03125 -1.570312,9.06641 -0.453125,3.03516 -0.828125,6.07813 -1.128906,9.13281 C 0.601562,172.17578 0.375,175.23437 0.226562,178.30078 0.0742188,181.36328 0,184.42969 0,187.5 c 0,3.07031 0.0742188,6.13672 0.226562,9.19922 0.148438,3.0664 0.375,6.125 0.675782,9.17969 0.300781,3.05468 0.675781,6.09765 1.128906,9.13281 0.449219,3.03515 0.972656,6.05859 1.570312,9.0664 0.601563,3.01172 1.273438,6.00391 2.019532,8.98047 0.742187,2.97657 1.5625,5.9336 2.453125,8.8711 0.890625,2.93359 1.851562,5.84765 2.886719,8.73828 1.035156,2.88672 2.136718,5.75 3.3125,8.58594 1.171874,2.83593 2.417968,5.63671 3.730468,8.41406 1.308594,2.77344 2.6875,5.51172 4.136719,8.21875 1.445313,2.70703 2.957031,5.375 4.535156,8.00781 1.578125,2.63281 3.21875,5.22266 4.921875,7.77344 1.707032,2.55469 3.472656,5.0625 5.300782,7.52734 1.828124,2.46485 3.714843,4.88281 5.660156,7.25391 1.949218,2.37109 3.953125,4.69531 6.011718,6.96875 2.0625,2.27344 4.175782,4.49609 6.347657,6.66406 2.167969,2.17188 4.390625,4.28516 6.664062,6.34766 2.273438,2.05859 4.597657,4.0625 6.96875,6.00781 2.371094,1.94922 4.789063,3.83594 7.253907,5.66406 2.464843,1.82813 4.972656,3.59375 7.527343,5.30078 2.550781,1.70313 5.140625,3.34375 7.773438,4.92188 2.632812,1.57812 5.300781,3.08984 8.007812,4.53515 2.707029,1.44922 5.445309,2.82813 8.218749,4.13672 2.77344,1.3125 5.57813,2.5586 8.41406,3.73047 2.83594,1.17578 5.69922,2.27735 8.58594,3.3125 2.89063,1.03516 5.80469,1.9961 8.73828,2.88672 2.9375,0.89063 5.89453,1.71094 8.8711,2.45313 2.97656,0.74609 5.96875,1.41796 8.98046,2.01953 3.00782,0.59765 6.03125,1.12109 9.06641,1.57031 3.03516,0.45312 6.07813,0.82812 9.13281,1.12891 3.05469,0.30078 6.11328,0.52734 9.17969,0.67578 3.0625,0.15234 6.12891,0.22656 9.19922,0.22656 3.07031,0 6.13672,-0.0742 9.19922,-0.22656 3.0664,-0.14844 6.125,-0.375 9.17969,-0.67578 3.05468,-0.30079 6.09765,-0.67579 9.13281,-1.12891 3.03515,-0.44922 6.05859,-0.97266 9.0664,-1.57031 3.01172,-0.60157 6.00391,-1.27344 8.98047,-2.01953 2.97657,-0.74219 5.9336,-1.5625 8.8711,-2.45313 2.93359,-0.89062 5.84765,-1.85156 8.73828,-2.88672 2.88672,-1.03515 5.75,-2.13672 8.58594,-3.3125 2.83593,-1.17187 5.63671,-2.41797 8.41406,-3.73047 2.77344,-1.30859 5.51172,-2.6875 8.21875,-4.13672 2.70703,-1.44531 5.375,-2.95703 8.00781,-4.53515 2.63281,-1.57813 5.22266,-3.21875 7.77344,-4.92188 2.55469,-1.70703 5.0625,-3.47265 7.52734,-5.30078 2.46485,-1.82812 4.88281,-3.71484 7.25391,-5.66406 2.37109,-1.94531 4.69531,-3.94922 6.96875,-6.00781 2.27344,-2.0625 4.49609,-4.17578 6.66406,-6.34766 2.17188,-2.16797 4.28516,-4.39062 6.34766,-6.66406 2.05859,-2.27344 4.0625,-4.59766 6.00781,-6.96875 1.94922,-2.3711 3.83594,-4.78906 5.66406,-7.25391 1.82813,-2.46484 3.59375,-4.97265 5.30078,-7.52734 1.70313,-2.55078 3.34375,-5.14063 4.92188,-7.77344 1.57812,-2.63281 3.08984,-5.30078 4.53515,-8.00781 1.44922,-2.70703 2.82813,-5.44531 4.13672,-8.21875 1.3125,-2.77735 2.5586,-5.57813 3.73047,-8.41406 1.17578,-2.83594 2.27735,-5.69922 3.3125,-8.58594 1.03516,-2.89063 1.9961,-5.80469 2.88672,-8.73828 0.89063,-2.9375 1.71094,-5.89453 2.45313,-8.8711 0.74609,-2.97656 1.41796,-5.96875 2.01953,-8.98047 0.59765,-3.00781 1.12109,-6.03125 1.57031,-9.0664 0.45312,-3.03516 0.82812,-6.07813 1.12891,-9.13281 0.30078,-3.05469 0.52734,-6.11329 0.67578,-9.17969 C 374.92578,193.63672 375,190.57031 375,187.5 c 0,-3.07031 -0.0742,-6.13672 -0.22656,-9.19922 -0.14844,-3.06641 -0.375,-6.125 -0.67578,-9.17969 -0.30079,-3.05468 -0.67579,-6.09765 -1.12891,-9.13281 -0.44922,-3.03516 -0.97266,-6.05859 -1.57031,-9.06641 -0.60157,-3.01171 -1.27344,-6.0039 -2.01953,-8.98046 -0.74219,-2.97657 -1.5625,-5.9336 -2.45313,-8.8711 -0.89062,-2.93359 -1.85156,-5.84765 -2.88672,-8.73828 -1.03515,-2.88672 -2.13672,-5.75 -3.3125,-8.58594 -1.17187,-2.83593 -2.41797,-5.64062 -3.73047,-8.41406 -1.30859,-2.77344 -2.6875,-5.51172 -4.13672,-8.218749 -1.44531,-2.707031 -2.95703,-5.375 -4.53515,-8.007812 -1.57813,-2.632813 -3.21875,-5.222657 -4.92188,-7.773438 -1.70703,-2.554687 -3.47265,-5.0625 -5.30078,-7.527343 -1.82812,-2.464844 -3.71484,-4.882813 -5.66406,-7.253907 -1.94531,-2.371093 -3.94922,-4.695312 -6.00781,-6.96875 -2.0625,-2.273437 -4.17578,-4.496093 -6.34766,-6.664062 -2.16797,-2.171875 -4.39062,-4.285157 -6.66406,-6.347657 -2.27344,-2.058593 -4.59766,-4.0625 -6.96875,-6.011718 -2.3711,-1.945313 -4.78906,-3.832032 -7.25391,-5.660156 -2.46484,-1.828126 -4.97265,-3.59375 -7.52734,-5.300782 -2.55078,-1.703125 -5.14063,-3.34375 -7.77344,-4.921875 -2.63281,-1.578125 -5.30078,-3.089843 -8.00781,-4.535156 -2.70703,-1.449219 -5.44531,-2.828125 -8.21875,-4.136719 -2.77735,-1.3125 -5.57813,-2.558594 -8.41406,-3.730468 -2.83594,-1.175782 -5.69922,-2.277344 -8.58594,-3.3125 -2.89063,-1.035157 -5.80469,-1.996094 -8.73828,-2.886719 -2.9375,-0.890625 -5.89453,-1.710938 -8.8711,-2.457031 C 230.08203,4.875 227.08984,4.203125 224.07812,3.601562 221.07031,3.003906 218.04687,2.480469 215.01172,2.03125 211.97656,1.578125 208.93359,1.203125 205.87891,0.902344 202.82422,0.601562 199.76562,0.375 196.69922,0.226562 193.63672,0.0742188 190.57031,0 187.5,0 Z m 0,0"
     id="path1173"
     inkscape:connector-curvature="0" />
  <path
     style="fill:#ffffff;fill-opacity:1;fill-rule:nonzero;stroke:none"
     d="m 187.5,8.433594 c -2.92969,0 -5.85938,0.070312 -8.78516,0.214844 -2.92968,0.144531 -5.85156,0.359374 -8.76562,0.648437 -2.91797,0.285156 -5.82422,0.644531 -8.72266,1.074219 -2.89844,0.429687 -5.78515,0.929687 -8.66015,1.503906 -2.875,0.570312 -5.73438,1.210938 -8.57422,1.925781 -2.84375,0.710938 -5.66797,1.492188 -8.47266,2.34375 -2.80469,0.851563 -5.58594,1.769531 -8.34375,2.757813 -2.76172,0.984375 -5.49609,2.039062 -8.20312,3.160156 -2.70703,1.121094 -5.38282,2.308594 -8.03516,3.5625 -2.64844,1.253906 -5.26562,2.570312 -7.84766,3.953125 -2.58593,1.378906 -5.136715,2.824219 -7.648434,4.332031 -2.515625,1.503906 -4.988281,3.074219 -7.425781,4.699219 -2.4375,1.628906 -4.832031,3.316406 -7.1875,5.0625 -2.351563,1.746094 -4.660156,3.546875 -6.925781,5.40625 -2.265625,1.859375 -4.484375,3.773437 -6.65625,5.742187 -2.171875,1.96875 -4.292969,3.988282 -6.367188,6.058594 -2.070312,2.074219 -4.089844,4.195313 -6.058594,6.367188 -1.96875,2.171875 -3.882812,4.390625 -5.742187,6.65625 -1.859375,2.265625 -3.660156,4.574218 -5.40625,6.925781 -1.746094,2.355469 -3.433594,4.75 -5.0625,7.1875 -1.625,2.4375 -3.195313,4.910156 -4.699219,7.425781 -1.507812,2.511719 -2.953125,5.062504 -4.332031,7.648434 -1.382813,2.58204 -2.699219,5.19922 -3.953125,7.84766 -1.253906,2.65234 -2.441406,5.32813 -3.5625,8.03516 -1.121094,2.70703 -2.175781,5.4414 -3.160156,8.20312 -0.988282,2.75781 -1.90625,5.53906 -2.757813,8.34375 -0.851562,2.80469 -1.632812,5.62891 -2.34375,8.47266 -0.714843,2.83984 -1.355469,5.69922 -1.925781,8.57422 -0.574219,2.875 -1.074219,5.76171 -1.503906,8.66015 -0.429688,2.89844 -0.789063,5.80469 -1.074219,8.72266 -0.289063,2.91406 -0.503906,5.83594 -0.648437,8.76562 -0.144532,2.92578 -0.214844,5.85547 -0.214844,8.78516 0,2.92969 0.070312,5.85937 0.214844,8.78516 0.144531,2.92968 0.359374,5.85156 0.648437,8.76562 0.285156,2.91797 0.644531,5.82422 1.074219,8.72266 0.429687,2.89843 0.929687,5.78515 1.503906,8.66015 0.570312,2.875 1.210938,5.73438 1.925781,8.57422 0.710938,2.84375 1.492188,5.66797 2.34375,8.47266 0.851563,2.80469 1.769531,5.58594 2.757813,8.34375 0.984375,2.76172 2.039062,5.49609 3.160156,8.20312 1.121094,2.70703 2.308594,5.38282 3.5625,8.03516 1.253906,2.64844 2.570312,5.26562 3.953125,7.84766 1.378906,2.58593 2.824219,5.13671 4.332031,7.64843 1.503906,2.51563 3.074219,4.98828 4.699219,7.42578 1.628906,2.4375 3.316406,4.83204 5.0625,7.1875 1.746094,2.35157 3.546875,4.66016 5.40625,6.92579 1.859375,2.26562 3.773437,4.48437 5.742187,6.65625 1.96875,2.17187 3.988282,4.29296 6.058594,6.36718 2.074219,2.07032 4.195313,4.08985 6.367188,6.0586 2.171875,1.96875 4.390625,3.88281 6.65625,5.74218 2.265625,1.85938 4.574218,3.66016 6.925781,5.40625 2.355469,1.7461 4.75,3.4336 7.1875,5.0586 2.4375,1.6289 4.910156,3.19922 7.425781,4.70312 2.511719,1.50782 5.062504,2.95313 7.648434,4.33203 2.58204,1.38282 5.19922,2.69922 7.84766,3.95313 2.65234,1.25391 5.32813,2.44141 8.03516,3.5625 2.70703,1.12109 5.4414,2.17578 8.20312,3.16016 2.75781,0.98828 5.53906,1.90625 8.34375,2.75781 2.80469,0.85156 5.62891,1.63281 8.47266,2.34375 2.83984,0.71484 5.69922,1.35547 8.57422,1.92578 2.875,0.57422 5.76171,1.07422 8.66015,1.50391 2.89844,0.42968 5.80469,0.78906 8.72266,1.07421 2.91406,0.28907 5.83594,0.50391 8.76562,0.64844 2.92578,0.14453 5.85547,0.21485 8.78516,0.21485 2.92969,0 5.85937,-0.0703 8.78516,-0.21485 2.92968,-0.14453 5.85156,-0.35937 8.76562,-0.64844 2.91797,-0.28515 5.82422,-0.64453 8.72266,-1.07421 2.89843,-0.42969 5.78515,-0.92969 8.66015,-1.50391 2.875,-0.57031 5.73438,-1.21094 8.57422,-1.92578 2.84375,-0.71094 5.66797,-1.49219 8.47266,-2.34375 2.80469,-0.85156 5.58594,-1.76953 8.34375,-2.75781 2.76172,-0.98438 5.49609,-2.03907 8.20312,-3.16016 2.70703,-1.12109 5.38282,-2.30859 8.03516,-3.5625 2.64844,-1.25391 5.26562,-2.57031 7.84766,-3.95313 2.58593,-1.3789 5.13671,-2.82421 7.64843,-4.33203 2.51563,-1.5039 4.98828,-3.07422 7.42578,-4.70312 2.4375,-1.625 4.83204,-3.3125 7.1875,-5.0586 2.35157,-1.74609 4.66016,-3.54687 6.92579,-5.40625 2.26562,-1.85937 4.48437,-3.77343 6.65625,-5.74218 2.17187,-1.96875 4.29296,-3.98828 6.36718,-6.0586 2.07032,-2.07422 4.08985,-4.19531 6.0586,-6.36718 1.96875,-2.17188 3.88281,-4.39063 5.74218,-6.65625 1.85938,-2.26563 3.66016,-4.57422 5.40625,-6.92579 1.7461,-2.35546 3.4336,-4.75 5.0586,-7.1875 1.6289,-2.4375 3.19922,-4.91015 4.70312,-7.42578 1.50782,-2.51172 2.95313,-5.0625 4.33203,-7.64843 1.38282,-2.58204 2.69922,-5.19922 3.95313,-7.84766 1.25391,-2.65234 2.44141,-5.32813 3.5625,-8.03516 1.12109,-2.70703 2.17578,-5.4414 3.16016,-8.20312 0.98828,-2.75781 1.90625,-5.53906 2.75781,-8.34375 0.85156,-2.80469 1.63281,-5.62891 2.34375,-8.47266 0.71484,-2.83984 1.35547,-5.69922 1.92578,-8.57422 0.57422,-2.875 1.07422,-5.76172 1.50391,-8.66015 0.42968,-2.89844 0.78906,-5.80469 1.07421,-8.72266 0.28907,-2.91406 0.50391,-5.83594 0.64844,-8.76562 0.14453,-2.92579 0.21485,-5.85547 0.21485,-8.78516 0,-2.92969 -0.0703,-5.85938 -0.21485,-8.78516 -0.14453,-2.92968 -0.35937,-5.85156 -0.64844,-8.76562 -0.28515,-2.91797 -0.64453,-5.82422 -1.07421,-8.72266 -0.42969,-2.89844 -0.92969,-5.78515 -1.50391,-8.66015 -0.57031,-2.875 -1.21094,-5.73438 -1.92578,-8.57422 -0.71094,-2.84375 -1.49219,-5.66797 -2.34375,-8.47266 -0.85156,-2.80469 -1.76953,-5.58594 -2.75781,-8.34375 -0.98438,-2.76172 -2.03907,-5.49609 -3.16016,-8.20312 -1.12109,-2.70703 -2.30859,-5.38282 -3.5625,-8.03516 -1.25391,-2.64844 -2.57031,-5.26562 -3.95313,-7.84766 -1.3789,-2.58593 -2.82421,-5.136715 -4.33203,-7.648434 -1.5039,-2.515625 -3.07422,-4.988281 -4.70312,-7.425781 -1.625,-2.4375 -3.3125,-4.832031 -5.0586,-7.1875 -1.74609,-2.351563 -3.54687,-4.660156 -5.40625,-6.925781 -1.85937,-2.265625 -3.77343,-4.484375 -5.74218,-6.65625 -1.96875,-2.171875 -3.98828,-4.292969 -6.0586,-6.367188 -2.07422,-2.070312 -4.19531,-4.089844 -6.36718,-6.058594 -2.17188,-1.96875 -4.39063,-3.882812 -6.65625,-5.742187 -2.26563,-1.859375 -4.57422,-3.660156 -6.92579,-5.40625 -2.35546,-1.746094 -4.75,-3.433594 -7.1875,-5.0625 -2.4375,-1.625 -4.91015,-3.195313 -7.42578,-4.699219 -2.51172,-1.507812 -5.0625,-2.953125 -7.64843,-4.332031 -2.58204,-1.382813 -5.19922,-2.699219 -7.84766,-3.953125 -2.65234,-1.253906 -5.32813,-2.441406 -8.03516,-3.5625 -2.70703,-1.121094 -5.4414,-2.175781 -8.20312,-3.160156 -2.75781,-0.988282 -5.53906,-1.90625 -8.34375,-2.757813 -2.80469,-0.851562 -5.62891,-1.632812 -8.47266,-2.34375 -2.83984,-0.714843 -5.69922,-1.355469 -8.57422,-1.925781 -2.875,-0.574219 -5.76172,-1.074219 -8.66015,-1.503906 C 210.875,9.941406 207.96875,9.582031 205.05078,9.296875 202.13672,9.007812 199.21484,8.792969 196.28516,8.648438 193.35937,8.503906 190.42969,8.433594 187.5,8.433594 Z m 0,0"
     id="path1175"
     inkscape:connector-curvature="0" />
  <path
     style="fill:#ff6e61;fill-opacity:1;fill-rule:nonzero;stroke:none"
     d="m 243.53125,122.35547 -50.6875,56.53125 4.61328,4.13281 67.87891,-75.70703 -4.60938,-4.13281 z m 0,0"
     id="path1177"
     inkscape:connector-curvature="0" />
  <path
     style="fill:#ff6e61;fill-opacity:1;fill-rule:nonzero;stroke:none"
     d="m 266.79687,232.125 -55.08593,-7.25 -0.8086,6.12891 80.625,10.60937 0.80469,-6.12891 z m 0,0"
     id="path1179"
     inkscape:connector-curvature="0" />
  <path
     style="fill:#2e2861;fill-opacity:1;fill-rule:nonzero;stroke:none"
     d="m 315.88281,211.39453 c -0.99219,0 -1.98828,0.0469 -2.97656,0.14453 -0.99219,0.0977 -1.97656,0.2461 -2.95313,0.4375 -0.97656,0.19531 -1.9414,0.4375 -2.89453,0.72656 -0.94922,0.28907 -1.88672,0.625 -2.80859,1.00391 -0.91797,0.38281 -1.81641,0.80859 -2.69531,1.27734 -0.87891,0.46875 -1.73047,0.98047 -2.5586,1.53125 -0.82812,0.55469 -1.625,1.14844 -2.39453,1.77735 -0.76953,0.63281 -1.50781,1.30078 -2.21094,2.0039 -0.70312,0.70313 -1.37109,1.44141 -2.0039,2.21094 -0.63281,0.76953 -1.22266,1.56641 -1.77735,2.39453 -0.55468,0.82813 -1.0625,1.6836 -1.53515,2.5586 -0.46875,0.8789 -0.89453,1.77734 -1.27344,2.69922 -0.38281,0.91796 -0.71484,1.85546 -1.00391,2.80859 -0.28906,0.95312 -0.53125,1.91797 -0.72656,2.89453 -0.19531,0.97656 -0.33984,1.95703 -0.4375,2.94922 -0.0976,0.99219 -0.14453,1.98437 -0.14453,2.98047 0,0.99609 0.0469,1.98828 0.14453,2.97656 0.0977,0.99219 0.24219,1.97656 0.4375,2.95313 0.19531,0.97656 0.4375,1.9414 0.72656,2.89453 0.28907,0.95312 0.6211,1.88672 1.00391,2.80859 0.37891,0.91797 0.80469,1.81641 1.27344,2.69531 0.47265,0.87891 0.98047,1.73047 1.53515,2.5586 0.55469,0.82812 1.14454,1.625 1.77735,2.39453 0.63281,0.76953 1.30078,1.50781 2.0039,2.21094 0.70313,0.70312 1.44141,1.37109 2.21094,2.0039 0.76953,0.63281 1.56641,1.22266 2.39453,1.77735 0.82813,0.55468 1.67969,1.0664 2.5586,1.53515 0.8789,0.46875 1.77734,0.89453 2.69531,1.27344 0.92187,0.38281 1.85937,0.71484 2.80859,1.00391 0.95313,0.28906 1.91797,0.53125 2.89453,0.72656 0.97657,0.19531 1.96094,0.33984 2.95313,0.4375 0.98828,0.0976 1.98437,0.14844 2.97656,0.14844 0.9961,0 1.98828,-0.0508 2.98047,-0.14844 0.99219,-0.0977 1.97656,-0.24219 2.95313,-0.4375 0.97656,-0.19531 1.9375,-0.4375 2.89062,-0.72656 0.95313,-0.28907 1.89063,-0.6211 2.80859,-1.00391 0.92188,-0.37891 1.82032,-0.80469 2.69922,-1.27344 0.875,-0.46875 1.73047,-0.98047 2.5586,-1.53515 0.82812,-0.55469 1.625,-1.14454 2.39453,-1.77735 0.76953,-0.63281 1.50781,-1.30078 2.21094,-2.0039 0.70312,-0.70313 1.37109,-1.44141 2.0039,-2.21094 0.62891,-0.76953 1.22266,-1.56641 1.77735,-2.39453 0.55078,-0.82813 1.0625,-1.67969 1.53125,-2.5586 0.46875,-0.8789 0.89453,-1.77734 1.27734,-2.69531 0.37891,-0.92187 0.71484,-1.85547 1.00391,-2.80859 0.28906,-0.95313 0.53125,-1.91797 0.72656,-2.89453 0.1914,-0.97657 0.33984,-1.96094 0.4375,-2.95313 0.0976,-0.98828 0.14453,-1.98047 0.14453,-2.97656 0,-0.9961 -0.0469,-1.98828 -0.14453,-2.98047 -0.0977,-0.99219 -0.2461,-1.97266 -0.4375,-2.94922 -0.19531,-0.97656 -0.4375,-1.94141 -0.72656,-2.89453 -0.28907,-0.95313 -0.625,-1.89063 -1.00391,-2.80859 -0.38281,-0.92188 -0.80859,-1.82032 -1.27734,-2.69922 -0.46875,-0.875 -0.98047,-1.73047 -1.53125,-2.5586 -0.55469,-0.82812 -1.14844,-1.625 -1.77735,-2.39453 -0.63281,-0.76953 -1.30078,-1.50781 -2.0039,-2.21094 -0.70313,-0.70312 -1.44141,-1.37109 -2.21094,-2.0039 -0.76953,-0.62891 -1.56641,-1.22266 -2.39453,-1.77735 -0.82813,-0.55078 -1.6836,-1.0625 -2.5586,-1.53125 -0.8789,-0.46875 -1.77734,-0.89453 -2.69922,-1.27734 -0.91796,-0.37891 -1.85546,-0.71484 -2.80859,-1.00391 -0.95312,-0.28906 -1.91406,-0.53125 -2.89062,-0.72656 -0.97657,-0.1914 -1.96094,-0.33984 -2.95313,-0.4375 -0.99219,-0.0977 -1.98437,-0.14453 -2.98047,-0.14453 z m 0,0"
     id="path1181"
     inkscape:connector-curvature="0" />
  <path
     style="fill:#ff6e61;fill-opacity:1;fill-rule:nonzero;stroke:none"
     d="M 101.40234,220.37891 48.214844,236.4375 50,242.35547 l 77.84766,-23.50391 -1.78907,-5.91797 z m 0,0"
     id="path1183"
     inkscape:connector-curvature="0" />
  <g
     clip-path="url(#clip1)"
     clip-rule="nonzero"
     id="g1189">
    <g
       clip-path="url(#clip2)"
       clip-rule="nonzero"
       id="g1187">
      <path
         style="fill:url(#linear0);fill-rule:nonzero;stroke:none"
         d="m 83.324219,126.66016 v 145.125 H 265.72266 v -145.125 z m 0,0"
         id="path1185"
         inkscape:connector-curvature="0" />
    </g>
  </g>
  <path
     style="fill:#2e2861;fill-opacity:1;fill-rule:nonzero;stroke:none"
     d="m 270.82422,59.09375 c -1.21875,0 -2.4336,0.05859 -3.64844,0.175781 -1.21094,0.121094 -2.41406,0.300781 -3.60937,0.539063 -1.19922,0.234375 -2.37891,0.53125 -3.54297,0.886718 -1.16797,0.351563 -2.3125,0.761719 -3.44141,1.230469 -1.125,0.464844 -2.22656,0.984375 -3.30078,1.558594 -1.07422,0.578125 -2.11719,1.203125 -3.13281,1.878906 -1.01172,0.675781 -1.98828,1.402344 -2.9336,2.175781 -0.9414,0.773438 -1.84375,1.589844 -2.70312,2.453126 -0.86328,0.863281 -1.67969,1.761718 -2.45313,2.707031 -0.77343,0.941406 -1.5,1.917969 -2.17578,2.933593 -0.67969,1.011719 -1.30469,2.054688 -1.8789,3.128907 -0.57422,1.078125 -1.09375,2.175781 -1.5625,3.304687 -0.46485,1.125 -0.875,2.269532 -1.23047,3.4375 -0.35157,1.164063 -0.64844,2.347656 -0.88672,3.542969 -0.23828,1.195313 -0.41406,2.398437 -0.53516,3.613281 -0.11719,1.210938 -0.17969,2.425782 -0.17969,3.644532 0,1.21875 0.0625,2.4375 0.17969,3.648437 0.1211,1.214845 0.29688,2.417965 0.53516,3.613285 0.23828,1.19531 0.53515,2.375 0.88672,3.54297 0.35547,1.16406 0.76562,2.3125 1.23047,3.4375 0.46875,1.125 0.98828,2.22656 1.5625,3.30078 0.57421,1.07812 1.19921,2.12109 1.8789,3.13281 0.67578,1.01562 1.40235,1.99219 2.17578,2.93359 0.77344,0.94141 1.58985,1.84375 2.45313,2.70703 0.85937,0.86329 1.76172,1.67969 2.70312,2.45313 0.94532,0.77344 1.92188,1.49609 2.9336,2.17578 1.01562,0.67578 2.05859,1.30078 3.13281,1.875 1.07422,0.57422 2.17578,1.09766 3.30078,1.5625 1.12891,0.46484 2.27344,0.875 3.44141,1.23047 1.16406,0.35547 2.34375,0.64844 3.54297,0.88672 1.19531,0.23828 2.39843,0.41797 3.60937,0.53515 1.21484,0.1211 2.42969,0.17969 3.64844,0.17969 1.21875,0 2.43359,-0.0586 3.64844,-0.17969 1.21093,-0.11718 2.41796,-0.29687 3.61328,-0.53515 1.19531,-0.23828 2.375,-0.53125 3.54297,-0.88672 1.16406,-0.35547 2.3125,-0.76563 3.4375,-1.23047 1.125,-0.46484 2.22656,-0.98828 3.30078,-1.5625 1.07422,-0.57422 2.12109,-1.19922 3.13281,-1.875 1.01172,-0.67969 1.99219,-1.40234 2.93359,-2.17578 0.94141,-0.77344 1.84375,-1.58984 2.70703,-2.45313 0.85938,-0.86328 1.67969,-1.76562 2.44922,-2.70703 0.77344,-0.9414 1.5,-1.91797 2.17578,-2.93359 0.67969,-1.01172 1.30469,-2.05469 1.87891,-3.13281 0.57422,-1.07422 1.09375,-2.17578 1.5625,-3.30078 0.46484,-1.125 0.875,-2.27344 1.23047,-3.4375 0.35156,-1.16797 0.64844,-2.34766 0.88672,-3.54297 0.23828,-1.19532 0.41406,-2.39844 0.53515,-3.613285 0.1211,-1.210937 0.17969,-2.429687 0.17969,-3.648437 0,-1.21875 -0.0586,-2.433594 -0.17969,-3.644532 -0.12109,-1.214844 -0.29687,-2.417968 -0.53515,-3.613281 -0.23828,-1.195313 -0.53516,-2.378906 -0.88672,-3.542969 -0.35547,-1.167968 -0.76563,-2.3125 -1.23047,-3.4375 -0.46875,-1.128906 -0.98828,-2.226562 -1.5625,-3.304687 -0.57422,-1.074219 -1.19922,-2.117188 -1.87891,-3.128907 -0.67578,-1.015624 -1.40234,-1.992187 -2.17578,-2.933593 -0.76953,-0.945313 -1.58984,-1.84375 -2.44922,-2.707031 -0.86328,-0.863282 -1.76562,-1.679688 -2.70703,-2.453126 -0.9414,-0.773437 -1.92187,-1.5 -2.93359,-2.175781 -1.01172,-0.675781 -2.05859,-1.300781 -3.13281,-1.878906 -1.07422,-0.574219 -2.17578,-1.09375 -3.30078,-1.558594 -1.125,-0.46875 -2.27344,-0.878906 -3.4375,-1.230469 -1.16797,-0.355468 -2.34766,-0.652343 -3.54297,-0.886718 -1.19532,-0.238282 -2.40235,-0.417969 -3.61328,-0.539063 -1.21485,-0.117187 -2.42969,-0.175781 -3.64844,-0.175781 z m 0,0"
     id="path1209"
     inkscape:connector-curvature="0" />
  <path
     style="fill:#2e2861;fill-opacity:1;fill-rule:nonzero;stroke:none"
     d="m 50.582031,214.61328 c -0.777343,0 -1.554687,0.0352 -2.328125,0.11328 -0.773437,0.0742 -1.542968,0.19141 -2.304687,0.33985 -0.761719,0.15234 -1.515625,0.34375 -2.257813,0.5664 -0.746094,0.22656 -1.476562,0.48828 -2.195312,0.78516 -0.71875,0.29687 -1.417969,0.6289 -2.105469,0.99609 -0.683594,0.36719 -1.351563,0.76563 -1.996094,1.19922 -0.648437,0.42969 -1.269531,0.89453 -1.871093,1.38672 -0.601563,0.49219 -1.175782,1.01562 -1.726563,1.5625 -0.550781,0.55078 -1.070313,1.12891 -1.566406,1.72656 -0.492188,0.60156 -0.953125,1.22656 -1.386719,1.8711 -0.429688,0.64843 -0.832031,1.3125 -1.195312,2 -0.367188,0.68359 -0.699219,1.38671 -0.996094,2.10546 -0.300782,0.71875 -0.5625,1.44922 -0.785156,2.19141 -0.226563,0.74609 -0.414063,1.5 -0.566407,2.26172 -0.152343,0.76172 -0.265625,1.53125 -0.34375,2.30469 -0.07422,0.77343 -0.113281,1.54687 -0.113281,2.32422 0,0.77734 0.03906,1.55468 0.113281,2.32812 0.07813,0.77344 0.191407,1.54297 0.34375,2.30469 0.152344,0.76172 0.339844,1.51562 0.566407,2.25781 0.222656,0.74609 0.484374,1.47656 0.785156,2.19531 0.296875,0.71875 0.628906,1.41797 0.996094,2.10547 0.363281,0.6836 0.765624,1.35156 1.195312,1.9961 0.433594,0.64843 0.894531,1.26953 1.386719,1.87109 0.496093,0.60156 1.015625,1.17578 1.566406,1.72656 0.550781,0.55078 1.125,1.07031 1.726563,1.56641 0.601562,0.49219 1.222656,0.95312 1.871093,1.38672 0.644531,0.42968 1.3125,0.83203 1.996094,1.19531 0.6875,0.36719 1.386719,0.69922 2.105469,0.99609 0.71875,0.30078 1.449218,0.5625 2.195312,0.78516 0.742188,0.22656 1.496094,0.41406 2.257813,0.56641 0.761719,0.15234 1.53125,0.26562 2.304687,0.34375 0.773438,0.0742 1.550782,0.11328 2.328125,0.11328 0.777344,0 1.550781,-0.0391 2.324219,-0.11328 0.773438,-0.0781 1.542969,-0.19141 2.304688,-0.34375 0.761718,-0.15235 1.515624,-0.33985 2.261718,-0.56641 0.742188,-0.22266 1.472656,-0.48438 2.191406,-0.78516 0.71875,-0.29687 1.421876,-0.6289 2.105469,-0.99609 0.6875,-0.36328 1.351563,-0.76563 2,-1.19531 0.644531,-0.4336 1.269531,-0.89453 1.871094,-1.38672 0.601563,-0.4961 1.175781,-1.01563 1.726563,-1.56641 0.546874,-0.55078 1.070312,-1.125 1.5625,-1.72656 0.492187,-0.60156 0.957031,-1.22266 1.386718,-1.87109 0.433594,-0.64454 0.832032,-1.3125 1.199219,-1.9961 0.367187,-0.6875 0.699219,-1.38672 0.996094,-2.10547 0.296875,-0.71875 0.558593,-1.44922 0.785156,-2.19531 0.222656,-0.74219 0.414063,-1.49609 0.566406,-2.25781 0.148438,-0.76172 0.265625,-1.53125 0.339844,-2.30469 0.07813,-0.77344 0.113281,-1.55078 0.113281,-2.32812 0,-0.77735 -0.03516,-1.55079 -0.113281,-2.32422 -0.07422,-0.77344 -0.191406,-1.54297 -0.339844,-2.30469 -0.152343,-0.76172 -0.34375,-1.51563 -0.566406,-2.26172 -0.226563,-0.74219 -0.488281,-1.47266 -0.785156,-2.19141 -0.296875,-0.71875 -0.628907,-1.42187 -0.996094,-2.10546 -0.367187,-0.6875 -0.765625,-1.35157 -1.199219,-2 -0.429687,-0.64454 -0.894531,-1.26954 -1.386718,-1.8711 -0.492188,-0.59765 -1.015626,-1.17578 -1.5625,-1.72656 -0.550782,-0.54688 -1.125,-1.07031 -1.726563,-1.5625 -0.601563,-0.49219 -1.226563,-0.95703 -1.871094,-1.38672 -0.648437,-0.43359 -1.3125,-0.83203 -2,-1.19922 -0.683593,-0.36719 -1.386719,-0.69922 -2.105469,-0.99609 -0.71875,-0.29688 -1.449218,-0.5586 -2.191406,-0.78516 -0.746094,-0.22265 -1.5,-0.41406 -2.261718,-0.5664 -0.761719,-0.14844 -1.53125,-0.26563 -2.304688,-0.33985 -0.773438,-0.0781 -1.546875,-0.11328 -2.324219,-0.11328 z m 0,0"
     id="path1211"
     inkscape:connector-curvature="0" />
</svg>
