<?xml version="1.0" encoding="UTF-8"?>
<svg xmlns="http://www.w3.org/2000/svg" xmlns:xlink="http://www.w3.org/1999/xlink" width="187.5pt" height="187.499995pt" viewBox="0 0 187.5 187.499995" version="1.2">
<defs>
<clipPath id="clip1">
  <path d="M 1.398438 1.398438 L 185.898438 1.398438 L 185.898438 185.898438 L 1.398438 185.898438 Z M 1.398438 1.398438 "/>
</clipPath>
</defs>
<g id="surface1">
<path style=" stroke:none;fill-rule:nonzero;fill:rgb(100%,43.528748%,38.038635%);fill-opacity:1;" d="M 90.671875 93.648438 C 90.671875 108.433594 78.675781 120.429688 63.890625 120.429688 C 49.101562 120.429688 37.105469 108.433594 37.105469 93.648438 C 37.105469 78.859375 49.101562 66.863281 63.890625 66.863281 C 78.675781 66.863281 90.671875 78.859375 90.671875 93.648438 "/>
<g clip-path="url(#clip1)" clip-rule="nonzero">
<path style=" stroke:none;fill-rule:nonzero;fill:rgb(18.818665%,16.079712%,38.819885%);fill-opacity:1;" d="M 179.945312 176.96875 C 179.945312 178.609375 178.609375 179.945312 176.96875 179.945312 L 129.355469 179.945312 C 127.71875 179.945312 126.382812 178.609375 126.382812 176.96875 L 126.382812 162.089844 L 144.234375 162.089844 L 144.234375 173.992188 L 162.089844 173.992188 L 162.089844 141.203125 C 165.800781 138.402344 168.042969 134.007812 168.042969 129.355469 C 168.042969 121.148438 161.371094 114.476562 153.164062 114.476562 C 144.957031 114.476562 138.285156 121.148438 138.285156 129.355469 C 138.285156 134.007812 140.527344 138.402344 144.234375 141.203125 L 144.234375 144.234375 L 126.382812 144.234375 L 126.382812 111.503906 C 126.382812 109.863281 127.71875 108.527344 129.355469 108.527344 L 176.96875 108.527344 C 178.609375 108.527344 179.945312 109.863281 179.945312 111.503906 Z M 150.1875 162.089844 L 156.140625 162.089844 L 156.140625 168.042969 L 150.1875 168.042969 Z M 148.710938 137.039062 C 145.910156 135.402344 144.234375 132.542969 144.234375 129.355469 C 144.234375 124.429688 148.234375 120.429688 153.164062 120.429688 C 158.09375 120.429688 162.089844 124.429688 162.089844 129.355469 C 162.089844 132.542969 160.417969 135.402344 157.617188 137.039062 L 156.140625 137.902344 L 156.140625 144.234375 L 150.1875 144.234375 L 150.1875 137.902344 Z M 87.695312 156.140625 L 87.695312 164.265625 C 87.695312 167.148438 85.964844 169.691406 83.289062 170.761719 L 61.585938 179.445312 C 60.761719 179.78125 59.890625 179.945312 58.996094 179.945312 C 55.425781 179.945312 52.496094 177.25 52.078125 173.808594 L 55.695312 172.714844 C 57.960938 172.042969 59.855469 170.703125 61.261719 168.984375 C 62.808594 170.238281 64.738281 171.019531 66.863281 171.019531 C 71.792969 171.019531 75.792969 167.019531 75.792969 162.089844 L 75.792969 144.234375 C 75.792969 139.308594 71.792969 135.308594 66.863281 135.308594 C 61.9375 135.308594 57.9375 139.308594 57.9375 144.234375 L 57.9375 151.675781 C 56.285156 150.757812 54.402344 150.1875 52.382812 150.1875 L 51.984375 150.1875 L 51.984375 133.390625 C 51.984375 129.519531 55.125 126.382812 58.996094 126.382812 C 59.890625 126.382812 60.761719 126.542969 61.585938 126.882812 L 83.289062 135.5625 C 85.964844 136.632812 87.695312 139.179688 87.695312 142.0625 L 87.695312 150.1875 L 156.140625 150.1875 L 156.140625 156.140625 Z M 63.890625 144.234375 C 63.890625 142.597656 65.226562 141.261719 66.863281 141.261719 C 68.503906 141.261719 69.839844 142.597656 69.839844 144.234375 L 69.839844 162.089844 C 69.839844 163.730469 68.503906 165.066406 66.863281 165.066406 C 65.226562 165.066406 63.890625 163.730469 63.890625 162.089844 Z M 33.574219 173.132812 C 28.679688 174.609375 23.214844 174.132812 18.636719 171.84375 L 7.347656 166.207031 L 7.347656 147.210938 L 16.277344 147.210938 L 46.035156 139.191406 L 46.035156 151.535156 C 45.835938 151.628906 45.640625 151.710938 45.453125 151.828125 L 38.304688 156.117188 C 35.609375 157.730469 32.316406 157.859375 29.515625 156.453125 L 26.84375 161.777344 C 31.480469 164.089844 36.921875 163.890625 41.375 161.21875 L 48.511719 156.929688 C 49.382812 156.417969 50.371094 156.140625 51.371094 156.140625 L 52.382812 156.140625 C 55.449219 156.140625 57.9375 158.625 57.9375 161.695312 C 57.9375 164.171875 56.34375 166.308594 53.972656 167.019531 Z M 38.6875 114.476562 L 48.742188 114.476562 C 49.589844 117.476562 50.601562 120.242188 51.8125 122.613281 C 51.382812 122.894531 51.019531 123.242188 50.636719 123.566406 C 45.941406 121.476562 41.871094 118.335938 38.6875 114.476562 Z M 22.226562 78.769531 C 14.019531 78.769531 7.347656 72.097656 7.347656 63.890625 C 7.347656 55.683594 14.019531 49.011719 22.226562 49.011719 L 25.203125 49.011719 L 25.203125 46.035156 C 25.203125 37.828125 31.875 31.15625 40.082031 31.15625 C 42.234375 31.15625 44.3125 31.621094 46.300781 32.527344 L 49.417969 33.96875 L 50.394531 30.679688 C 54.507812 16.9375 67.398438 7.347656 81.742188 7.347656 C 97.785156 7.347656 111.339844 18.832031 113.988281 34.644531 L 114.40625 37.175781 L 117.453125 37.105469 C 127.472656 37.105469 135.960938 44.1875 137.878906 53.835938 C 130.9375 58.679688 126.382812 66.714844 126.382812 75.792969 L 126.382812 76.710938 C 123.601562 78.035156 120.558594 78.769531 117.453125 78.769531 L 99.585938 78.769531 C 93.75 64.796875 79.953125 54.960938 63.890625 54.960938 C 47.824219 54.960938 34.027344 64.796875 28.191406 78.769531 Z M 52.066406 96.625 L 75.699219 96.625 C 75.535156 101.003906 75.082031 105.003906 74.375 108.527344 L 53.425781 108.527344 C 52.683594 104.828125 52.21875 100.808594 52.066406 96.625 Z M 34.769531 78.769531 L 47.3125 78.769531 C 46.652344 82.453125 46.230469 86.453125 46.105469 90.671875 L 31.304688 90.671875 C 31.691406 86.417969 32.910156 82.394531 34.769531 78.769531 Z M 48.695312 72.816406 L 38.664062 72.816406 C 42.371094 68.328125 47.253906 64.890625 52.835938 62.878906 C 51.183594 65.609375 49.789062 68.96875 48.695312 72.816406 Z M 72.839844 72.816406 L 54.9375 72.816406 C 57.285156 65.457031 60.691406 60.914062 63.890625 60.914062 C 67.085938 60.914062 70.492188 65.457031 72.839844 72.816406 Z M 79.082031 72.816406 C 77.988281 68.96875 76.59375 65.609375 74.945312 62.878906 C 80.523438 64.890625 85.40625 68.328125 89.113281 72.816406 Z M 75.734375 90.671875 L 52.042969 90.671875 C 52.207031 86.371094 52.695312 82.371094 53.414062 78.769531 L 74.363281 78.769531 C 75.082031 82.371094 75.570312 86.371094 75.734375 90.671875 Z M 81.675781 90.671875 C 81.546875 86.453125 81.128906 82.453125 80.464844 78.769531 L 93.007812 78.769531 C 94.867188 82.394531 96.089844 86.417969 96.472656 90.671875 Z M 89.113281 114.476562 C 85.429688 118.941406 80.582031 122.453125 74.933594 124.476562 C 76.570312 121.707031 77.953125 118.324219 79.046875 114.476562 Z M 93.03125 108.527344 L 80.417969 108.527344 C 81.105469 104.792969 81.546875 100.785156 81.699219 96.625 L 96.484375 96.625 C 96.101562 100.855469 94.890625 104.875 93.03125 108.527344 Z M 31.304688 96.625 L 46.117188 96.625 C 46.253906 100.773438 46.671875 104.785156 47.359375 108.527344 L 34.78125 108.527344 C 32.898438 104.851562 31.691406 100.832031 31.304688 96.625 Z M 57.496094 120.582031 C 56.542969 118.824219 55.683594 116.769531 54.949219 114.476562 L 72.839844 114.476562 C 71.609375 118.277344 70.109375 121.242188 68.550781 123.253906 L 63.796875 121.359375 C 62.261719 120.742188 60.644531 120.429688 58.996094 120.429688 C 58.484375 120.429688 57.996094 120.523438 57.496094 120.582031 Z M 120.429688 111.503906 L 120.429688 144.234375 L 93.648438 144.234375 L 93.648438 142.0625 C 93.648438 136.738281 90.449219 132.019531 85.5 130.03125 L 81.09375 128.277344 C 94.042969 121.847656 102.574219 108.550781 102.574219 93.648438 C 102.574219 90.566406 102.179688 87.589844 101.492188 84.71875 L 117.453125 84.71875 C 120.511719 84.71875 123.523438 84.136719 126.382812 83.140625 L 126.382812 103.121094 C 122.929688 104.351562 120.429688 107.632812 120.429688 111.503906 Z M 173.992188 75.792969 L 173.992188 90.671875 L 168.042969 90.671875 L 168.042969 75.792969 C 168.042969 67.585938 161.371094 60.914062 153.164062 60.914062 C 144.957031 60.914062 138.285156 67.585938 138.285156 75.792969 L 138.285156 102.574219 L 132.332031 102.574219 L 132.332031 75.792969 C 132.332031 64.308594 141.679688 54.960938 153.164062 54.960938 C 164.648438 54.960938 173.992188 64.308594 173.992188 75.792969 Z M 176.96875 102.574219 L 144.234375 102.574219 L 144.234375 75.792969 C 144.234375 70.863281 148.234375 66.863281 153.164062 66.863281 C 158.09375 66.863281 162.089844 70.863281 162.089844 75.792969 L 162.089844 96.625 L 179.945312 96.625 L 179.945312 75.792969 C 179.945312 61.03125 167.925781 49.011719 153.164062 49.011719 C 149.675781 49.011719 146.351562 49.695312 143.28125 50.917969 C 140.351562 40.011719 130.796875 32.027344 119.371094 31.226562 C 115.304688 13.800781 99.867188 1.398438 81.742188 1.398438 C 65.855469 1.398438 51.472656 11.359375 45.730469 25.996094 C 43.894531 25.472656 42 25.203125 40.082031 25.203125 C 29.539062 25.203125 20.808594 33.074219 19.4375 43.246094 C 9.265625 44.617188 1.398438 53.347656 1.398438 63.890625 C 1.398438 75.375 10.742188 84.71875 22.226562 84.71875 L 26.285156 84.71875 C 25.597656 87.589844 25.203125 90.566406 25.203125 93.648438 C 25.203125 108.480469 33.851562 122.046875 47.023438 128.449219 C 46.441406 129.867188 46.117188 131.414062 46.070312 133.03125 L 15.882812 141.261719 L 1.398438 141.261719 L 1.398438 169.878906 L 15.972656 177.167969 C 19.601562 178.980469 23.667969 179.945312 27.738281 179.945312 C 30.296875 179.945312 32.839844 179.574219 35.292969 178.839844 L 46.300781 175.539062 C 47.5 181.433594 52.730469 185.898438 58.996094 185.898438 C 60.644531 185.898438 62.261719 185.582031 63.808594 184.96875 L 85.5 176.296875 C 90.449219 174.308594 93.648438 169.589844 93.648438 164.265625 L 93.648438 162.089844 L 120.429688 162.089844 L 120.429688 176.96875 C 120.429688 181.898438 124.429688 185.898438 129.355469 185.898438 L 176.96875 185.898438 C 181.898438 185.898438 185.898438 181.898438 185.898438 176.96875 L 185.898438 111.503906 C 185.898438 106.574219 181.898438 102.574219 176.96875 102.574219 "/>
</g>
<path style=" stroke:none;fill-rule:nonzero;fill:rgb(18.818665%,16.079712%,38.819885%);fill-opacity:1;" d="M 81.742188 19.253906 C 91.253906 19.253906 99.550781 25.679688 101.921875 34.875 L 107.679688 33.386719 C 104.644531 21.566406 93.972656 13.300781 81.742188 13.300781 C 72.210938 13.300781 63.320312 18.425781 58.542969 26.691406 L 63.703125 29.667969 C 67.410156 23.238281 74.328125 19.253906 81.742188 19.253906 "/>
</g>
</svg>
